<svg width="246" height="258" viewBox="0 0 246 258" fill="none" xmlns="http://www.w3.org/2000/svg">
<g filter="url(#filter0_f_207_7988)">
<path d="M124.448 253.754C189.025 253.754 241.376 201.138 241.376 136.233C241.376 71.3279 189.025 18.7119 124.448 18.7119C59.87 18.7119 7.51953 71.3279 7.51953 136.233C7.51953 201.138 59.87 253.754 124.448 253.754Z" fill="#FA9E42"/>
<g filter="url(#filter1_f_207_7988)">
<path d="M115.997 119.521C154.858 98.8797 176.594 63.7577 164.545 41.0734C152.496 18.389 111.226 16.7325 72.3645 37.3734C33.5033 58.0143 11.7674 93.1364 23.816 115.821C35.8647 138.505 77.1353 140.162 115.997 119.521Z" fill="#F8E36F"/>
</g>
</g>
<defs>
<filter id="filter0_f_207_7988" x="3.51953" y="14.7119" width="241.855" height="243.042" filterUnits="userSpaceOnUse" color-interpolation-filters="sRGB">
<feFlood flood-opacity="0" result="BackgroundImageFix"/>
<feBlend mode="normal" in="SourceGraphic" in2="BackgroundImageFix" result="shape"/>
<feGaussianBlur stdDeviation="2" result="effect1_foregroundBlur_207_7988"/>
</filter>
<filter id="filter1_f_207_7988" x="0.492188" y="2.91406" width="187.375" height="151.065" filterUnits="userSpaceOnUse" color-interpolation-filters="sRGB">
<feFlood flood-opacity="0" result="BackgroundImageFix"/>
<feBlend mode="normal" in="SourceGraphic" in2="BackgroundImageFix" result="shape"/>
<feGaussianBlur stdDeviation="10" result="effect1_foregroundBlur_207_7988"/>
</filter>
</defs>
</svg>
