<svg width="414" height="317" viewBox="0 0 414 317" fill="none" xmlns="http://www.w3.org/2000/svg">
<g filter="url(#filter0_f_215_8061)">
<path d="M98.1657 260C99.7657 260.018 115.984 285.341 115.984 295.182C115.984 299.908 114.106 304.44 110.765 307.781C107.423 311.123 102.891 313 98.1657 313C93.44 313 88.908 311.123 85.5664 307.781C82.2249 304.44 80.3477 299.908 80.3477 295.182C80.3477 285.342 96.5667 259.982 98.1657 260Z" fill="#42A0F0"/>
<path d="M84.5827 301.841C86.3631 302.386 88.6259 300.147 89.6367 296.84C90.6475 293.534 90.0236 290.413 88.2432 289.868C86.4628 289.324 84.2001 291.563 83.1893 294.869C82.1785 298.176 82.8023 301.297 84.5827 301.841Z" fill="white"/>
<path d="M191.166 260C192.766 260.018 208.984 285.341 208.984 295.182C208.984 299.908 207.106 304.44 203.765 307.781C200.423 311.123 195.891 313 191.166 313C186.44 313 181.908 311.123 178.566 307.781C175.225 304.44 173.348 299.908 173.348 295.182C173.348 285.342 189.567 259.982 191.166 260Z" fill="#42A0F0"/>
<path d="M177.583 301.841C179.363 302.386 181.626 300.147 182.637 296.84C183.648 293.534 183.024 290.413 181.243 289.868C179.463 289.324 177.2 291.563 176.189 294.869C175.178 298.176 175.802 301.297 177.583 301.841Z" fill="white"/>
<path d="M284.166 260C285.766 260.018 301.984 285.341 301.984 295.182C301.984 299.908 300.106 304.44 296.765 307.781C293.423 311.123 288.891 313 284.166 313C279.44 313 274.908 311.123 271.566 307.781C268.225 304.44 266.348 299.908 266.348 295.182C266.348 285.342 282.567 259.982 284.166 260Z" fill="#42A0F0"/>
<path d="M270.583 301.841C272.363 302.386 274.626 300.147 275.637 296.84C276.648 293.534 276.024 290.413 274.243 289.868C272.463 289.324 270.2 291.563 269.189 294.869C268.178 298.176 268.802 301.297 270.583 301.841Z" fill="white"/>
<path d="M145.166 182C146.766 182.018 162.984 207.341 162.984 217.182C162.984 221.908 161.106 226.44 157.765 229.781C154.423 233.123 149.891 235 145.166 235C140.44 235 135.908 233.123 132.566 229.781C129.225 226.44 127.348 221.908 127.348 217.182C127.348 207.342 143.567 181.982 145.166 182Z" fill="#42A0F0"/>
<path d="M131.583 223.841C133.363 224.386 135.626 222.147 136.637 218.84C137.648 215.534 137.024 212.413 135.243 211.868C133.463 211.324 131.2 213.563 130.189 216.869C129.178 220.176 129.802 223.297 131.583 223.841Z" fill="white"/>
<path d="M243.166 182C244.766 182.018 260.984 207.341 260.984 217.182C260.984 221.908 259.106 226.44 255.765 229.781C252.423 233.123 247.891 235 243.166 235C238.44 235 233.908 233.123 230.566 229.781C227.225 226.44 225.348 221.908 225.348 217.182C225.348 207.342 241.567 181.982 243.166 182Z" fill="#42A0F0"/>
<path d="M229.583 223.841C231.363 224.386 233.626 222.147 234.637 218.84C235.648 215.534 235.024 212.413 233.243 211.868C231.463 211.324 229.2 213.563 228.189 216.869C227.178 220.176 227.802 223.297 229.583 223.841Z" fill="white"/>
<g filter="url(#filter1_d_215_8061)">
<path d="M283.343 249H91.9111C73.3407 248.986 55.4956 241.789 42.1117 228.915C28.7278 216.042 20.8428 198.49 20.1073 179.934C19.3717 161.378 25.8428 143.257 38.1657 129.364C50.4887 115.472 67.7081 106.884 86.2191 105.4C88.8589 86.7604 97.2762 69.4171 110.287 55.8104C123.297 42.2037 140.246 33.0184 158.75 29.5468C177.253 26.0752 196.379 28.492 213.437 36.4572C230.495 44.4223 244.626 57.535 253.843 73.9504C270.748 68.0984 289.013 67.4147 306.309 71.9864C323.604 76.5581 339.146 86.178 350.951 99.6191C362.757 113.06 370.291 129.713 372.592 147.454C374.894 165.194 371.859 183.219 363.875 199.227C359.19 213.691 350.043 226.298 337.747 235.24C325.451 244.182 310.639 249 295.435 249H283.343Z" fill="url(#paint0_linear_215_8061)"/>
<path d="M295.437 248C303.156 248 310.746 246.767 317.996 244.336C325.006 241.985 331.587 238.555 337.557 234.14C343.458 229.776 348.631 224.548 352.932 218.602C357.287 212.582 360.649 205.96 362.925 198.919L362.949 198.847L362.983 198.779C366.01 192.731 368.341 186.333 369.911 179.763C371.526 173.003 372.345 166.017 372.345 158.999C372.345 152.96 371.737 146.925 370.537 141.062C369.368 135.348 367.623 129.728 365.352 124.357C363.121 119.084 360.36 113.997 357.146 109.24C353.962 104.527 350.305 100.095 346.278 96.0672C342.25 92.0395 337.818 88.3828 333.105 85.1988C328.347 81.9845 323.261 79.2237 317.988 76.9932C312.617 74.7216 306.997 72.9769 301.283 71.8077C295.42 70.6079 289.384 69.9995 283.345 69.9995C273.346 69.9995 263.531 71.6451 254.172 74.8907L253.383 75.1645L252.973 74.4361C245.357 60.8942 234.279 49.5216 220.937 41.5478C214.189 37.5152 206.94 34.399 199.391 32.2857C191.602 30.1055 183.512 29 175.345 29C164.361 29 153.638 30.977 143.475 34.876C133.657 38.6427 124.65 44.0837 116.705 51.048C108.806 57.9722 102.251 66.1422 97.2213 75.3308C92.0685 84.7451 88.7006 94.9073 87.2113 105.535L87.0998 106.33L86.299 106.393C77.3408 107.094 68.7219 109.453 60.6818 113.403C52.8694 117.242 45.8932 122.434 39.947 128.834C27.7289 141.987 21 159.123 21 177.087C21 186.66 22.8748 195.947 26.5723 204.689C28.3495 208.891 30.5491 212.943 33.1102 216.734C35.6472 220.489 38.5607 224.02 41.7699 227.23C44.9791 230.439 48.5104 233.352 52.2655 235.889C56.0565 238.45 60.109 240.65 64.3106 242.427C73.0525 246.125 82.3391 248 91.9127 248H283.345H295.437ZM295.437 249H283.345H91.9127C52.1966 249 20 216.803 20 177.087C20 139.286 49.1646 108.297 86.221 105.396C92.3504 61.6574 129.917 28 175.345 28C209.048 28 238.422 46.5231 253.845 73.9459C263.087 70.7406 273.012 68.9995 283.345 68.9995C333.051 68.9995 373.345 109.294 373.345 158.999C373.345 173.459 369.936 187.121 363.877 199.227C354.54 228.109 327.427 249 295.437 249Z" fill="white" fill-opacity="0.5"/>
</g>
</g>
<defs>
<filter id="filter0_f_215_8061" x="16" y="24" width="361.344" height="293" filterUnits="userSpaceOnUse" color-interpolation-filters="sRGB">
<feFlood flood-opacity="0" result="BackgroundImageFix"/>
<feBlend mode="normal" in="SourceGraphic" in2="BackgroundImageFix" result="shape"/>
<feGaussianBlur stdDeviation="2" result="effect1_foregroundBlur_215_8061"/>
</filter>
<filter id="filter1_d_215_8061" x="0" y="0" width="413.344" height="281" filterUnits="userSpaceOnUse" color-interpolation-filters="sRGB">
<feFlood flood-opacity="0" result="BackgroundImageFix"/>
<feColorMatrix in="SourceAlpha" type="matrix" values="0 0 0 0 0 0 0 0 0 0 0 0 0 0 0 0 0 0 127 0" result="hardAlpha"/>
<feOffset dx="10" dy="2"/>
<feGaussianBlur stdDeviation="15"/>
<feColorMatrix type="matrix" values="0 0 0 0 0.501961 0 0 0 0 0.501961 0 0 0 0 0.501961 0 0 0 0.302 0"/>
<feBlend mode="normal" in2="BackgroundImageFix" result="effect1_dropShadow_215_8061"/>
<feBlend mode="normal" in="SourceGraphic" in2="effect1_dropShadow_215_8061" result="shape"/>
</filter>
<linearGradient id="paint0_linear_215_8061" x1="196.696" y1="28.0029" x2="299.339" y2="276.167" gradientUnits="userSpaceOnUse">
<stop stop-color="white" stop-opacity="0.604"/>
<stop offset="1" stop-color="white" stop-opacity="0.2"/>
</linearGradient>
</defs>
</svg>
