<svg width="424" height="348" viewBox="0 0 424 348" fill="none" xmlns="http://www.w3.org/2000/svg">
<g filter="url(#filter0_f_217_8083)">
<path d="M108.148 214.763C162.548 214.763 206.648 170.439 206.648 115.763C206.648 61.0865 162.548 16.7627 108.148 16.7627C53.7484 16.7627 9.64844 61.0865 9.64844 115.763C9.64844 170.439 53.7484 214.763 108.148 214.763Z" fill="#FA9E42"/>
<g filter="url(#filter1_f_217_8083)">
<path d="M101.03 101.684C133.767 84.2962 152.077 54.7094 141.928 35.6002C131.778 16.4909 97.0115 15.0954 64.2749 32.4833C31.5383 49.8712 13.228 79.4579 23.3778 98.5672C33.5275 117.676 68.2938 119.072 101.03 101.684Z" fill="#F8E36F"/>
</g>
<path d="M114.703 220.295C115.334 220.313 121.738 245.543 121.738 255.347C121.738 265.151 118.588 273.1 114.703 273.1C110.818 273.1 107.668 265.152 107.668 255.348C107.668 245.544 114.068 220.278 114.703 220.295Z" fill="#42A0F0"/>
<path d="M113.632 249.716C114.659 250.073 114.972 252.293 114.33 254.677C113.688 257.06 112.333 258.702 111.306 258.346C110.278 257.99 109.965 255.768 110.608 253.385C111.25 251.002 112.603 249.359 113.632 249.716Z" fill="white"/>
<path d="M174.633 220.295C175.264 220.313 181.668 245.543 181.668 255.347C181.668 265.151 178.518 273.1 174.633 273.1C170.748 273.1 167.598 265.152 167.598 255.348C167.598 245.544 173.998 220.278 174.633 220.295Z" fill="#42A0F0"/>
<path d="M173.561 249.716C174.589 250.073 174.901 252.293 174.259 254.677C173.617 257.06 172.263 258.702 171.235 258.346C170.208 257.99 169.894 255.768 170.537 253.385C171.18 251.002 172.532 249.359 173.561 249.716Z" fill="white"/>
<path d="M234.566 220.295C235.197 220.313 241.601 245.543 241.601 255.347C241.601 265.151 238.451 273.1 234.566 273.1C230.681 273.1 227.531 265.152 227.531 255.348C227.531 245.544 233.931 220.278 234.566 220.295Z" fill="#42A0F0"/>
<path d="M233.495 249.716C234.522 250.073 234.835 252.293 234.193 254.677C233.551 257.06 232.197 258.702 231.169 258.346C230.141 257.99 229.828 255.768 230.471 253.385C231.114 251.002 232.466 249.359 233.495 249.716Z" fill="white"/>
<path d="M294.496 217.295C295.127 217.313 301.531 242.543 301.531 252.347C301.531 262.151 298.381 270.1 294.496 270.1C290.611 270.1 287.461 262.152 287.461 252.348C287.461 242.544 293.861 217.278 294.496 217.295Z" fill="#42A0F0"/>
<path d="M293.424 246.716C294.452 247.073 294.764 249.293 294.123 251.677C293.481 254.06 292.126 255.702 291.099 255.346C290.071 254.99 289.758 252.768 290.401 250.385C291.043 248.002 292.396 246.359 293.424 246.716Z" fill="white"/>
<path d="M202.836 287.295C203.467 287.313 209.871 312.543 209.871 322.347C209.871 332.151 206.721 340.1 202.836 340.1C198.951 340.1 195.801 332.152 195.801 322.348C195.801 312.544 202.201 287.278 202.836 287.295Z" fill="#42A0F0"/>
<path d="M201.764 316.716C202.792 317.073 203.104 319.293 202.462 321.677C201.82 324.06 200.466 325.702 199.439 325.346C198.411 324.99 198.098 322.768 198.74 320.385C199.383 318.002 200.736 316.359 201.764 316.716Z" fill="white"/>
<path d="M262.765 287.295C263.396 287.313 269.8 312.543 269.8 322.347C269.8 332.151 266.65 340.1 262.765 340.1C258.88 340.1 255.73 332.152 255.73 322.348C255.73 312.544 262.13 287.278 262.765 287.295Z" fill="#42A0F0"/>
<path d="M261.694 316.716C262.722 317.073 263.034 319.293 262.392 321.677C261.75 324.06 260.396 325.702 259.368 325.346C258.34 324.99 258.027 322.768 258.67 320.385C259.313 318.002 260.665 316.359 261.694 316.716Z" fill="white"/>
<path d="M326.222 287.295C326.853 287.313 333.257 312.543 333.257 322.347C333.257 332.151 330.107 340.1 326.222 340.1C322.337 340.1 319.188 332.152 319.188 322.348C319.188 312.544 325.587 287.278 326.222 287.295Z" fill="#42A0F0"/>
<path d="M325.151 316.716C326.179 317.073 326.491 319.293 325.849 321.677C325.207 324.06 323.853 325.702 322.825 325.346C321.797 324.99 321.484 322.768 322.127 320.385C322.77 318.002 324.122 316.359 325.151 316.716Z" fill="white"/>
<path d="M142.906 290.295C143.537 290.313 149.941 315.543 149.941 325.347C149.941 335.151 146.791 343.1 142.906 343.1C139.021 343.1 135.871 335.152 135.871 325.348C135.871 315.544 142.271 290.278 142.906 290.295Z" fill="#42A0F0"/>
<path d="M141.835 319.716C142.862 320.073 143.175 322.293 142.533 324.677C141.891 327.06 140.537 328.702 139.509 328.346C138.481 327.99 138.168 325.768 138.811 323.385C139.454 321.002 140.806 319.359 141.835 319.716Z" fill="white"/>
<path d="M86.4998 287.295C87.1308 287.313 93.5348 312.543 93.5348 322.347C93.5348 332.151 90.3848 340.1 86.4998 340.1C82.6148 340.1 79.4648 332.152 79.4648 322.348C79.4648 312.544 85.8648 287.278 86.4998 287.295Z" fill="#42A0F0"/>
<path d="M85.4284 316.716C86.4559 317.073 86.7684 319.293 86.1265 321.677C85.4846 324.06 84.1304 325.702 83.1026 325.346C82.0748 324.99 81.7616 322.768 82.4045 320.385C83.0473 318.002 84.3996 316.359 85.4284 316.716Z" fill="white"/>
<g filter="url(#filter2_d_217_8083)">
<path d="M293.343 279.937H101.911C83.3407 279.923 65.4956 272.726 52.1117 259.852C38.7278 246.978 30.8428 229.426 30.1073 210.87C29.3717 192.314 35.8428 174.193 48.1657 160.301C60.4887 146.408 77.7081 137.821 96.2191 136.337C98.8589 117.697 107.276 100.354 120.287 86.7469C133.297 73.1402 150.246 63.9549 168.75 60.4833C187.253 57.0117 206.379 59.4285 223.437 67.3937C240.495 75.3589 254.626 88.4715 263.843 104.887C280.748 99.0351 299.013 98.3512 316.308 102.923C333.603 107.494 349.144 117.113 360.95 130.554C372.755 143.994 380.29 160.647 382.592 178.387C384.894 196.127 381.861 214.151 373.877 230.16C369.192 244.625 360.045 257.233 347.749 266.176C335.453 275.119 320.64 279.937 305.435 279.937H293.343Z" fill="url(#paint0_linear_217_8083)"/>
<path d="M305.437 278.936C313.157 278.936 320.748 277.703 327.998 275.272C335.009 272.921 341.59 269.491 347.56 265.076C353.462 260.711 358.635 255.483 362.936 249.537C367.29 243.516 370.652 236.893 372.928 229.852L372.951 229.779L372.985 229.712C376.011 223.664 378.341 217.267 379.911 210.697C381.526 203.937 382.345 196.952 382.345 189.936C382.345 183.897 381.737 177.862 380.537 171.998C379.368 166.285 377.623 160.664 375.352 155.294C373.121 150.02 370.361 144.934 367.146 140.176C363.962 135.463 360.306 131.031 356.278 127.004C352.25 122.976 347.819 119.319 343.106 116.135C338.348 112.921 333.261 110.16 327.988 107.93C322.617 105.658 316.997 103.913 311.283 102.744C305.42 101.544 299.385 100.936 293.345 100.936C283.346 100.936 273.531 102.582 264.172 105.827L263.383 106.101L262.973 105.373C255.357 91.8308 244.279 80.4582 230.937 72.4844C224.189 68.4518 216.94 65.3356 209.391 63.2223C201.602 61.042 193.512 59.9365 185.345 59.9365C174.361 59.9365 163.638 61.9135 153.475 65.8126C143.657 69.5792 134.65 75.0203 126.705 81.9845C118.806 88.9088 112.251 97.0787 107.221 106.267C102.069 115.682 98.7006 125.844 97.2113 136.471L97.0998 137.267L96.299 137.33C87.3408 138.031 78.7219 140.389 70.6818 144.34C62.8694 148.178 55.8932 153.37 49.947 159.771C37.7289 172.923 31 190.06 31 208.023C31 217.597 32.8748 226.884 36.5723 235.625C38.3495 239.827 40.5491 243.88 43.1102 247.671C45.6472 251.426 48.5607 254.957 51.7699 258.166C54.9791 261.375 58.5104 264.289 62.2655 266.826C66.0565 269.387 70.109 271.587 74.3106 273.364C83.0525 277.061 92.3391 278.936 101.913 278.936H293.345H305.437ZM305.437 279.936H293.345H101.913C62.1966 279.936 30 247.739 30 208.023C30 170.222 59.1646 139.233 96.221 136.333C102.35 92.5939 139.917 58.9365 185.345 58.9365C219.048 58.9365 248.422 77.4597 263.845 104.883C273.087 101.677 283.012 99.936 293.345 99.936C343.051 99.936 383.345 140.231 383.345 189.936C383.345 204.392 379.936 218.055 373.879 230.159C364.544 259.045 337.431 279.936 305.437 279.936Z" fill="white" fill-opacity="0.5"/>
</g>
<g filter="url(#filter3_f_217_8083)">
<path d="M108.148 214.763C162.548 214.763 206.648 170.439 206.648 115.763C206.648 61.0865 162.548 16.7627 108.148 16.7627C53.7484 16.7627 9.64844 61.0865 9.64844 115.763C9.64844 170.439 53.7484 214.763 108.148 214.763Z" fill="#FA9E42"/>
<g filter="url(#filter4_f_217_8083)">
<path d="M101.03 101.684C133.767 84.2962 152.077 54.7094 141.928 35.6002C131.778 16.4909 97.0115 15.0954 64.2749 32.4833C31.5383 49.8712 13.228 79.4579 23.3778 98.5672C33.5275 117.676 68.2938 119.072 101.03 101.684Z" fill="#F8E36F"/>
</g>
<path d="M114.703 220.295C115.334 220.313 121.738 245.543 121.738 255.347C121.738 265.151 118.588 273.1 114.703 273.1C110.818 273.1 107.668 265.152 107.668 255.348C107.668 245.544 114.068 220.278 114.703 220.295Z" fill="#42A0F0"/>
<path d="M113.632 249.716C114.659 250.073 114.972 252.293 114.33 254.677C113.688 257.06 112.333 258.702 111.306 258.346C110.278 257.99 109.965 255.768 110.608 253.385C111.25 251.002 112.603 249.359 113.632 249.716Z" fill="white"/>
<path d="M174.633 220.295C175.264 220.313 181.668 245.543 181.668 255.347C181.668 265.151 178.518 273.1 174.633 273.1C170.748 273.1 167.598 265.152 167.598 255.348C167.598 245.544 173.998 220.278 174.633 220.295Z" fill="#42A0F0"/>
<path d="M173.561 249.716C174.589 250.073 174.901 252.293 174.259 254.677C173.617 257.06 172.263 258.702 171.235 258.346C170.208 257.99 169.894 255.768 170.537 253.385C171.18 251.002 172.532 249.359 173.561 249.716Z" fill="white"/>
<path d="M234.566 220.295C235.197 220.313 241.601 245.543 241.601 255.347C241.601 265.151 238.451 273.1 234.566 273.1C230.681 273.1 227.531 265.152 227.531 255.348C227.531 245.544 233.931 220.278 234.566 220.295Z" fill="#42A0F0"/>
<path d="M233.495 249.716C234.522 250.073 234.835 252.293 234.193 254.677C233.551 257.06 232.197 258.702 231.169 258.346C230.141 257.99 229.828 255.768 230.471 253.385C231.114 251.002 232.466 249.359 233.495 249.716Z" fill="white"/>
<path d="M294.496 217.295C295.127 217.313 301.531 242.543 301.531 252.347C301.531 262.151 298.381 270.1 294.496 270.1C290.611 270.1 287.461 262.152 287.461 252.348C287.461 242.544 293.861 217.278 294.496 217.295Z" fill="#42A0F0"/>
<path d="M293.424 246.716C294.452 247.073 294.764 249.293 294.123 251.677C293.481 254.06 292.126 255.702 291.099 255.346C290.071 254.99 289.758 252.768 290.401 250.385C291.043 248.002 292.396 246.359 293.424 246.716Z" fill="white"/>
<path d="M202.836 287.295C203.467 287.313 209.871 312.543 209.871 322.347C209.871 332.151 206.721 340.1 202.836 340.1C198.951 340.1 195.801 332.152 195.801 322.348C195.801 312.544 202.201 287.278 202.836 287.295Z" fill="#42A0F0"/>
<path d="M201.764 316.716C202.792 317.073 203.104 319.293 202.462 321.677C201.82 324.06 200.466 325.702 199.439 325.346C198.411 324.99 198.098 322.768 198.74 320.385C199.383 318.002 200.736 316.359 201.764 316.716Z" fill="white"/>
<path d="M262.765 287.295C263.396 287.313 269.8 312.543 269.8 322.347C269.8 332.151 266.65 340.1 262.765 340.1C258.88 340.1 255.73 332.152 255.73 322.348C255.73 312.544 262.13 287.278 262.765 287.295Z" fill="#42A0F0"/>
<path d="M261.694 316.716C262.722 317.073 263.034 319.293 262.392 321.677C261.75 324.06 260.396 325.702 259.368 325.346C258.34 324.99 258.027 322.768 258.67 320.385C259.313 318.002 260.665 316.359 261.694 316.716Z" fill="white"/>
<path d="M326.222 287.295C326.853 287.313 333.257 312.543 333.257 322.347C333.257 332.151 330.107 340.1 326.222 340.1C322.337 340.1 319.188 332.152 319.188 322.348C319.188 312.544 325.587 287.278 326.222 287.295Z" fill="#42A0F0"/>
<path d="M325.151 316.716C326.179 317.073 326.491 319.293 325.849 321.677C325.207 324.06 323.853 325.702 322.825 325.346C321.797 324.99 321.484 322.768 322.127 320.385C322.77 318.002 324.122 316.359 325.151 316.716Z" fill="white"/>
<path d="M142.906 290.295C143.537 290.313 149.941 315.543 149.941 325.347C149.941 335.151 146.791 343.1 142.906 343.1C139.021 343.1 135.871 335.152 135.871 325.348C135.871 315.544 142.271 290.278 142.906 290.295Z" fill="#42A0F0"/>
<path d="M141.835 319.716C142.862 320.073 143.175 322.293 142.533 324.677C141.891 327.06 140.537 328.702 139.509 328.346C138.481 327.99 138.168 325.768 138.811 323.385C139.454 321.002 140.806 319.359 141.835 319.716Z" fill="white"/>
<path d="M86.4998 287.295C87.1308 287.313 93.5348 312.543 93.5348 322.347C93.5348 332.151 90.3848 340.1 86.4998 340.1C82.6148 340.1 79.4648 332.152 79.4648 322.348C79.4648 312.544 85.8648 287.278 86.4998 287.295Z" fill="#42A0F0"/>
<path d="M85.4284 316.716C86.4559 317.073 86.7684 319.293 86.1265 321.677C85.4846 324.06 84.1304 325.702 83.1026 325.346C82.0748 324.99 81.7616 322.768 82.4045 320.385C83.0473 318.002 84.3996 316.359 85.4284 316.716Z" fill="white"/>
<g filter="url(#filter5_d_217_8083)">
<path d="M293.343 279.937H101.911C83.3407 279.923 65.4956 272.726 52.1117 259.852C38.7278 246.978 30.8428 229.426 30.1073 210.87C29.3717 192.314 35.8428 174.193 48.1657 160.301C60.4887 146.408 77.7081 137.821 96.2191 136.337C98.8589 117.697 107.276 100.354 120.287 86.7469C133.297 73.1402 150.246 63.9549 168.75 60.4833C187.253 57.0117 206.379 59.4285 223.437 67.3937C240.495 75.3589 254.626 88.4715 263.843 104.887C280.748 99.0351 299.013 98.3512 316.308 102.923C333.603 107.494 349.144 117.113 360.95 130.554C372.755 143.994 380.29 160.647 382.592 178.387C384.894 196.127 381.861 214.151 373.877 230.16C369.192 244.625 360.045 257.233 347.749 266.176C335.453 275.119 320.64 279.937 305.435 279.937H293.343Z" fill="url(#paint1_linear_217_8083)"/>
<path d="M305.437 278.936C313.157 278.936 320.748 277.703 327.998 275.272C335.009 272.921 341.59 269.491 347.56 265.076C353.462 260.711 358.635 255.483 362.936 249.537C367.29 243.516 370.652 236.893 372.928 229.852L372.951 229.779L372.985 229.712C376.011 223.664 378.341 217.267 379.911 210.697C381.526 203.937 382.345 196.952 382.345 189.936C382.345 183.897 381.737 177.862 380.537 171.998C379.368 166.285 377.623 160.664 375.352 155.294C373.121 150.02 370.361 144.934 367.146 140.176C363.962 135.463 360.306 131.031 356.278 127.004C352.25 122.976 347.819 119.319 343.106 116.135C338.348 112.921 333.261 110.16 327.988 107.93C322.617 105.658 316.997 103.913 311.283 102.744C305.42 101.544 299.385 100.936 293.345 100.936C283.346 100.936 273.531 102.582 264.172 105.827L263.383 106.101L262.973 105.373C255.357 91.8308 244.279 80.4582 230.937 72.4844C224.189 68.4518 216.94 65.3356 209.391 63.2223C201.602 61.042 193.512 59.9365 185.345 59.9365C174.361 59.9365 163.638 61.9135 153.475 65.8126C143.657 69.5792 134.65 75.0203 126.705 81.9845C118.806 88.9088 112.251 97.0787 107.221 106.267C102.069 115.682 98.7006 125.844 97.2113 136.471L97.0998 137.267L96.299 137.33C87.3408 138.031 78.7219 140.389 70.6818 144.34C62.8694 148.178 55.8932 153.37 49.947 159.771C37.7289 172.923 31 190.06 31 208.023C31 217.597 32.8748 226.884 36.5723 235.625C38.3495 239.827 40.5491 243.88 43.1102 247.671C45.6472 251.426 48.5607 254.957 51.7699 258.166C54.9791 261.375 58.5104 264.289 62.2655 266.826C66.0565 269.387 70.109 271.587 74.3106 273.364C83.0525 277.061 92.3391 278.936 101.913 278.936H293.345H305.437ZM305.437 279.936H293.345H101.913C62.1966 279.936 30 247.739 30 208.023C30 170.222 59.1646 139.233 96.221 136.333C102.35 92.5939 139.917 58.9365 185.345 58.9365C219.048 58.9365 248.422 77.4597 263.845 104.883C273.087 101.677 283.012 99.936 293.345 99.936C343.051 99.936 383.345 140.231 383.345 189.936C383.345 204.392 379.936 218.055 373.879 230.159C364.544 259.045 337.431 279.936 305.437 279.936Z" fill="white" fill-opacity="0.5"/>
</g>
</g>
</g>
<defs>
<filter id="filter0_f_217_8083" x="5.64844" y="12.7627" width="381.695" height="334.337" filterUnits="userSpaceOnUse" color-interpolation-filters="sRGB">
<feFlood flood-opacity="0" result="BackgroundImageFix"/>
<feBlend mode="normal" in="SourceGraphic" in2="BackgroundImageFix" result="shape"/>
<feGaussianBlur stdDeviation="2" result="effect1_foregroundBlur_217_8083"/>
</filter>
<filter id="filter1_f_217_8083" x="0.578125" y="0.302734" width="164.148" height="133.562" filterUnits="userSpaceOnUse" color-interpolation-filters="sRGB">
<feFlood flood-opacity="0" result="BackgroundImageFix"/>
<feBlend mode="normal" in="SourceGraphic" in2="BackgroundImageFix" result="shape"/>
<feGaussianBlur stdDeviation="10" result="effect1_foregroundBlur_217_8083"/>
</filter>
<filter id="filter2_d_217_8083" x="10" y="30.9365" width="413.344" height="281.001" filterUnits="userSpaceOnUse" color-interpolation-filters="sRGB">
<feFlood flood-opacity="0" result="BackgroundImageFix"/>
<feColorMatrix in="SourceAlpha" type="matrix" values="0 0 0 0 0 0 0 0 0 0 0 0 0 0 0 0 0 0 127 0" result="hardAlpha"/>
<feOffset dx="10" dy="2"/>
<feGaussianBlur stdDeviation="15"/>
<feColorMatrix type="matrix" values="0 0 0 0 0.501961 0 0 0 0 0.501961 0 0 0 0 0.501961 0 0 0 0.302 0"/>
<feBlend mode="normal" in2="BackgroundImageFix" result="effect1_dropShadow_217_8083"/>
<feBlend mode="normal" in="SourceGraphic" in2="effect1_dropShadow_217_8083" result="shape"/>
</filter>
<filter id="filter3_f_217_8083" x="5.64844" y="12.7627" width="381.695" height="334.337" filterUnits="userSpaceOnUse" color-interpolation-filters="sRGB">
<feFlood flood-opacity="0" result="BackgroundImageFix"/>
<feBlend mode="normal" in="SourceGraphic" in2="BackgroundImageFix" result="shape"/>
<feGaussianBlur stdDeviation="2" result="effect1_foregroundBlur_217_8083"/>
</filter>
<filter id="filter4_f_217_8083" x="0.578125" y="0.302734" width="164.148" height="133.562" filterUnits="userSpaceOnUse" color-interpolation-filters="sRGB">
<feFlood flood-opacity="0" result="BackgroundImageFix"/>
<feBlend mode="normal" in="SourceGraphic" in2="BackgroundImageFix" result="shape"/>
<feGaussianBlur stdDeviation="10" result="effect1_foregroundBlur_217_8083"/>
</filter>
<filter id="filter5_d_217_8083" x="10" y="30.9365" width="413.344" height="281.001" filterUnits="userSpaceOnUse" color-interpolation-filters="sRGB">
<feFlood flood-opacity="0" result="BackgroundImageFix"/>
<feColorMatrix in="SourceAlpha" type="matrix" values="0 0 0 0 0 0 0 0 0 0 0 0 0 0 0 0 0 0 127 0" result="hardAlpha"/>
<feOffset dx="10" dy="2"/>
<feGaussianBlur stdDeviation="15"/>
<feColorMatrix type="matrix" values="0 0 0 0 0.501961 0 0 0 0 0.501961 0 0 0 0 0.501961 0 0 0 0.302 0"/>
<feBlend mode="normal" in2="BackgroundImageFix" result="effect1_dropShadow_217_8083"/>
<feBlend mode="normal" in="SourceGraphic" in2="effect1_dropShadow_217_8083" result="shape"/>
</filter>
<linearGradient id="paint0_linear_217_8083" x1="206.696" y1="58.9395" x2="309.339" y2="307.103" gradientUnits="userSpaceOnUse">
<stop stop-color="white" stop-opacity="0.604"/>
<stop offset="1" stop-color="white" stop-opacity="0.2"/>
</linearGradient>
<linearGradient id="paint1_linear_217_8083" x1="206.696" y1="58.9395" x2="309.339" y2="307.103" gradientUnits="userSpaceOnUse">
<stop stop-color="white" stop-opacity="0.604"/>
<stop offset="1" stop-color="white" stop-opacity="0.2"/>
</linearGradient>
</defs>
</svg>
