<svg width="414" height="351" viewBox="0 0 414 351" fill="none" xmlns="http://www.w3.org/2000/svg">
<g filter="url(#filter0_f_217_8194)">
<path d="M179.333 175H247.405L208.272 232.466L254.027 233.332L157.99 347L181.26 260.337H138.66L179.333 175Z" fill="url(#paint0_linear_217_8194)"/>
<path d="M284.518 235.482H314.405L297.224 260.713L317.313 261.093L275.147 310.999L285.364 272.95H266.664L284.518 235.482Z" fill="url(#paint1_linear_217_8194)"/>
<path d="M77.5181 261H107.405L90.2241 286.231L110.313 286.611L68.1471 336.517L78.3641 298.468H59.6641L77.5181 261Z" fill="url(#paint2_linear_217_8194)"/>
<g filter="url(#filter1_d_217_8194)">
<path d="M283.343 248.999H91.9111C73.3407 248.985 55.4956 241.788 42.1117 228.914C28.7278 216.041 20.8428 198.489 20.1073 179.933C19.3717 161.377 25.8428 143.256 38.1657 129.363C50.4887 115.471 67.7081 106.883 86.2191 105.399C88.8589 86.7594 97.2762 69.4161 110.287 55.8094C123.297 42.2027 140.246 33.0174 158.75 29.5458C177.253 26.0742 196.379 28.491 213.437 36.4562C230.495 44.4214 244.626 57.534 253.843 73.9494C270.748 68.0975 289.013 67.4137 306.309 71.9854C323.604 76.5571 339.146 86.177 350.951 99.6181C362.757 113.059 370.291 129.712 372.592 147.453C374.894 165.193 371.859 183.218 363.875 199.226C359.19 213.69 350.043 226.297 337.747 235.239C325.451 244.181 310.639 248.999 295.435 248.999H283.343Z" fill="url(#paint3_linear_217_8194)"/>
<path d="M295.437 248C303.156 248 310.746 246.767 317.996 244.336C325.006 241.985 331.587 238.555 337.557 234.14C343.458 229.776 348.631 224.548 352.932 218.602C357.287 212.582 360.649 205.96 362.925 198.919L362.949 198.847L362.983 198.779C366.01 192.731 368.341 186.333 369.911 179.763C371.526 173.003 372.345 166.017 372.345 158.999C372.345 152.96 371.737 146.925 370.537 141.062C369.368 135.348 367.623 129.728 365.352 124.357C363.121 119.084 360.36 113.997 357.146 109.24C353.962 104.527 350.305 100.095 346.278 96.0672C342.25 92.0395 337.818 88.3828 333.105 85.1988C328.347 81.9845 323.261 79.2237 317.988 76.9932C312.617 74.7216 306.997 72.9769 301.283 71.8077C295.42 70.6079 289.384 69.9995 283.345 69.9995C273.346 69.9995 263.531 71.6451 254.172 74.8907L253.383 75.1645L252.973 74.4361C245.357 60.8942 234.279 49.5216 220.937 41.5478C214.189 37.5152 206.94 34.399 199.391 32.2857C191.602 30.1055 183.512 29 175.345 29C164.361 29 153.638 30.977 143.475 34.876C133.657 38.6427 124.65 44.0837 116.705 51.048C108.806 57.9722 102.251 66.1422 97.2213 75.3308C92.0685 84.7451 88.7006 94.9073 87.2113 105.535L87.0998 106.33L86.299 106.393C77.3408 107.094 68.7219 109.453 60.6818 113.403C52.8694 117.242 45.8932 122.434 39.947 128.834C27.7289 141.987 21 159.123 21 177.087C21 186.66 22.8748 195.947 26.5723 204.689C28.3495 208.891 30.5491 212.943 33.1102 216.734C35.6472 220.489 38.5607 224.02 41.7699 227.23C44.9791 230.439 48.5104 233.352 52.2655 235.889C56.0565 238.45 60.109 240.65 64.3106 242.427C73.0525 246.125 82.3391 248 91.9127 248H283.345H295.437ZM295.437 249H283.345H91.9127C52.1966 249 20 216.803 20 177.087C20 139.286 49.1646 108.297 86.221 105.396C92.3504 61.6574 129.917 28 175.345 28C209.048 28 238.422 46.5231 253.845 73.9459C263.087 70.7406 273.012 68.9995 283.345 68.9995C333.051 68.9995 373.345 109.294 373.345 158.999C373.345 173.459 369.936 187.121 363.877 199.227C354.54 228.109 327.427 249 295.437 249Z" fill="white" fill-opacity="0.5"/>
</g>
</g>
<defs>
<filter id="filter0_f_217_8194" x="16" y="24" width="361.344" height="327" filterUnits="userSpaceOnUse" color-interpolation-filters="sRGB">
<feFlood flood-opacity="0" result="BackgroundImageFix"/>
<feBlend mode="normal" in="SourceGraphic" in2="BackgroundImageFix" result="shape"/>
<feGaussianBlur stdDeviation="2" result="effect1_foregroundBlur_217_8194"/>
</filter>
<filter id="filter1_d_217_8194" x="0" y="0" width="413.344" height="281" filterUnits="userSpaceOnUse" color-interpolation-filters="sRGB">
<feFlood flood-opacity="0" result="BackgroundImageFix"/>
<feColorMatrix in="SourceAlpha" type="matrix" values="0 0 0 0 0 0 0 0 0 0 0 0 0 0 0 0 0 0 127 0" result="hardAlpha"/>
<feOffset dx="10" dy="2"/>
<feGaussianBlur stdDeviation="15"/>
<feColorMatrix type="matrix" values="0 0 0 0 0.501961 0 0 0 0 0.501961 0 0 0 0 0.501961 0 0 0 0.302 0"/>
<feBlend mode="normal" in2="BackgroundImageFix" result="effect1_dropShadow_217_8194"/>
<feBlend mode="normal" in="SourceGraphic" in2="effect1_dropShadow_217_8194" result="shape"/>
</filter>
<linearGradient id="paint0_linear_217_8194" x1="185.73" y1="261" x2="131.841" y2="241.244" gradientUnits="userSpaceOnUse">
<stop stop-color="#FFD100"/>
<stop offset="1" stop-color="#FFF0AA"/>
</linearGradient>
<linearGradient id="paint1_linear_217_8194" x1="287.329" y1="273.241" x2="263.67" y2="264.568" gradientUnits="userSpaceOnUse">
<stop stop-color="#FFD100"/>
<stop offset="1" stop-color="#FFF0AA"/>
</linearGradient>
<linearGradient id="paint2_linear_217_8194" x1="80.3289" y1="298.758" x2="56.67" y2="290.086" gradientUnits="userSpaceOnUse">
<stop stop-color="#FFD100"/>
<stop offset="1" stop-color="#FFF0AA"/>
</linearGradient>
<linearGradient id="paint3_linear_217_8194" x1="196.696" y1="28.002" x2="299.339" y2="276.166" gradientUnits="userSpaceOnUse">
<stop stop-color="white" stop-opacity="0.604"/>
<stop offset="1" stop-color="white" stop-opacity="0.2"/>
</linearGradient>
</defs>
</svg>
