<svg width="436" height="370" viewBox="0 0 436 370" fill="none" xmlns="http://www.w3.org/2000/svg">
<g filter="url(#filter0_f_217_8259)">
<path d="M186.369 192.299C187.085 192.317 194.351 217.547 194.351 227.351C194.351 237.155 190.777 245.104 186.369 245.104C181.961 245.104 178.387 237.156 178.387 227.352C178.387 217.548 185.653 192.282 186.369 192.299Z" fill="#42A0F0"/>
<path d="M182.512 230.351C183.678 230.708 185.214 229.065 185.943 226.682C186.671 224.299 186.317 222.078 185.151 221.722C183.984 221.365 182.448 223.008 181.72 225.391C180.991 227.774 181.346 229.995 182.512 230.351Z" fill="white"/>
<path d="M245.794 192.299C246.51 192.317 253.776 217.547 253.776 227.351C253.776 237.155 250.202 245.104 245.794 245.104C241.386 245.104 237.812 237.156 237.812 227.352C237.812 217.548 245.078 192.282 245.794 192.299Z" fill="#42A0F0"/>
<path d="M241.938 230.351C243.104 230.708 244.64 229.065 245.369 226.682C246.097 224.299 245.743 222.078 244.576 221.722C243.41 221.365 241.874 223.008 241.146 225.391C240.417 227.774 240.772 229.995 241.938 230.351Z" fill="white"/>
<path d="M300.681 189.299C301.397 189.317 308.663 214.547 308.663 224.351C308.663 234.155 305.089 242.104 300.681 242.104C296.273 242.104 292.699 234.156 292.699 224.352C292.699 214.548 299.965 189.282 300.681 189.299Z" fill="#42A0F0"/>
<path d="M296.825 227.351C297.991 227.708 299.527 226.065 300.255 223.682C300.984 221.299 300.629 219.078 299.463 218.722C298.297 218.365 296.761 220.008 296.032 222.391C295.304 224.774 295.659 226.995 296.825 227.351Z" fill="white"/>
<path d="M214.334 259.299C215.05 259.317 222.316 284.547 222.316 294.351C222.316 304.155 218.742 312.104 214.334 312.104C209.926 312.104 206.352 304.156 206.352 294.352C206.352 284.548 213.618 259.282 214.334 259.299Z" fill="#42A0F0"/>
<path d="M210.477 297.351C211.643 297.708 213.179 296.065 213.908 293.682C214.636 291.299 214.282 289.078 213.115 288.722C211.949 288.365 210.413 290.008 209.685 292.391C208.956 294.774 209.311 296.995 210.477 297.351Z" fill="white"/>
<path d="M273.759 259.299C274.475 259.317 281.741 284.547 281.741 294.351C281.741 304.155 278.167 312.104 273.759 312.104C269.351 312.104 265.777 304.156 265.777 294.352C265.777 284.548 273.043 259.282 273.759 259.299Z" fill="#42A0F0"/>
<path d="M269.903 297.351C271.069 297.708 272.605 296.065 273.334 293.682C274.062 291.299 273.707 289.078 272.541 288.722C271.375 288.365 269.839 290.008 269.111 292.391C268.382 294.774 268.737 296.995 269.903 297.351Z" fill="white"/>
<path d="M336.681 259.299C337.397 259.317 344.663 284.547 344.663 294.351C344.663 304.155 341.089 312.104 336.681 312.104C332.273 312.104 328.699 304.156 328.699 294.352C328.699 284.548 335.965 259.282 336.681 259.299Z" fill="#42A0F0"/>
<path d="M332.825 297.351C333.991 297.708 335.527 296.065 336.255 293.682C336.984 291.299 336.629 289.078 335.463 288.722C334.297 288.365 332.761 290.008 332.032 292.391C331.304 294.774 331.659 296.995 332.825 297.351Z" fill="white"/>
<path d="M186.369 312.299C187.085 312.317 194.351 337.547 194.351 347.351C194.351 357.155 190.777 365.104 186.369 365.104C181.961 365.104 178.387 357.156 178.387 347.352C178.387 337.548 185.653 312.282 186.369 312.299Z" fill="#42A0F0"/>
<path d="M182.512 350.351C183.678 350.708 185.214 349.065 185.943 346.682C186.671 344.299 186.317 342.078 185.151 341.722C183.984 341.365 182.448 343.008 181.72 345.391C180.991 347.774 181.346 349.995 182.512 350.351Z" fill="white"/>
<path d="M245.794 312.299C246.51 312.317 253.776 337.547 253.776 347.351C253.776 357.155 250.202 365.104 245.794 365.104C241.386 365.104 237.812 357.156 237.812 347.352C237.812 337.548 245.078 312.282 245.794 312.299Z" fill="#42A0F0"/>
<path d="M241.938 350.351C243.104 350.708 244.64 349.065 245.369 346.682C246.097 344.299 245.743 342.078 244.576 341.722C243.41 341.365 241.874 343.008 241.146 345.391C240.417 347.774 240.772 349.995 241.938 350.351Z" fill="white"/>
<path d="M300.681 312.299C301.397 312.317 308.663 337.547 308.663 347.351C308.663 357.155 305.089 365.104 300.681 365.104C296.273 365.104 292.699 357.156 292.699 347.352C292.699 337.548 299.965 312.282 300.681 312.299Z" fill="#42A0F0"/>
<path d="M296.825 350.351C297.991 350.708 299.527 349.065 300.255 346.682C300.984 344.299 300.629 342.078 299.463 341.722C298.297 341.365 296.761 343.008 296.032 345.391C295.304 347.774 295.659 349.995 296.825 350.351Z" fill="white"/>
<path d="M100.697 199.253C150.64 199.253 191.128 158.56 191.128 108.363C191.128 58.1655 150.64 17.4727 100.697 17.4727C50.753 17.4727 10.2656 58.1655 10.2656 108.363C10.2656 158.56 50.753 199.253 100.697 199.253Z" fill="#FA9E42"/>
<g filter="url(#filter1_f_217_8259)">
<path d="M94.1638 95.436C124.219 79.4725 141.029 52.3094 131.711 34.7656C122.393 17.2217 90.4742 15.9406 60.4193 31.9041C30.3643 47.8676 13.554 75.0307 22.8723 92.5745C32.1906 110.118 64.1089 111.399 94.1638 95.436Z" fill="#F8E36F"/>
</g>
<path d="M114.53 227.424H161.176L134.361 266.802L165.714 267.396L99.9062 345.284L115.851 285.9H86.6602L114.53 227.424Z" fill="url(#paint0_linear_217_8259)"/>
<g filter="url(#filter2_d_217_8259)">
<path d="M305.343 253.941H113.911C95.3407 253.927 77.4956 246.729 64.1117 233.856C50.7278 220.982 42.8428 203.43 42.1073 184.874C41.3717 166.318 47.8428 148.197 60.1657 134.305C72.4887 120.412 89.7081 111.825 108.219 110.341C110.859 91.7008 119.276 74.3575 132.287 60.7508C145.297 47.1441 162.246 37.9588 180.75 34.4872C199.253 31.0156 218.379 33.4324 235.437 41.3976C252.495 49.3628 266.626 62.4754 275.843 78.8909C292.748 73.039 311.013 72.3551 328.308 76.9265C345.603 81.4979 361.144 91.1173 372.95 104.558C384.755 117.998 392.29 134.651 394.592 152.391C396.894 170.131 393.861 188.155 385.877 204.164C381.192 218.629 372.045 231.237 359.749 240.18C347.453 249.123 332.64 253.94 317.435 253.941H305.343Z" fill="url(#paint1_linear_217_8259)"/>
<path d="M317.437 252.941C325.157 252.941 332.748 251.708 339.998 249.277C347.009 246.926 353.59 243.496 359.56 239.081C365.462 234.716 370.635 229.488 374.936 223.542C379.29 217.521 382.652 210.898 384.928 203.857L384.951 203.784L384.985 203.717C388.011 197.669 390.341 191.272 391.911 184.702C393.526 177.941 394.345 170.956 394.345 163.941C394.345 157.902 393.737 151.867 392.537 146.003C391.368 140.29 389.623 134.669 387.352 129.299C385.121 124.025 382.361 118.939 379.146 114.181C375.962 109.468 372.306 105.036 368.278 101.009C364.25 96.9809 359.819 93.3242 355.106 90.1402C350.348 86.9259 345.261 84.1651 339.988 81.9346C334.617 79.663 328.997 77.9183 323.283 76.7491C317.42 75.5493 311.385 74.9409 305.345 74.9409C295.346 74.9409 285.531 76.5866 276.172 79.8322L275.383 80.106L274.973 79.3776C267.357 65.8357 256.279 54.4631 242.937 46.4893C236.189 42.4567 228.94 39.3405 221.391 37.2271C213.602 35.0469 205.512 33.9414 197.345 33.9414C186.361 33.9414 175.638 35.9184 165.475 39.8175C155.657 43.5841 146.65 49.0251 138.705 55.9894C130.806 62.9136 124.251 71.0836 119.221 80.2722C114.069 89.6865 110.701 99.8487 109.211 110.476L109.1 111.272L108.299 111.334C99.3408 112.036 90.7219 114.394 82.6818 118.345C74.8694 122.183 67.8932 127.375 61.947 133.776C49.7289 146.928 43 164.065 43 182.028C43 191.602 44.8748 200.888 48.5723 209.63C50.3495 213.832 52.5491 217.884 55.1102 221.675C57.6472 225.431 60.5607 228.962 63.7699 232.171C66.9791 235.38 70.5104 238.294 74.2655 240.831C78.0565 243.392 82.109 245.591 86.3106 247.369C95.0525 251.066 104.339 252.941 113.913 252.941H305.345H317.437ZM317.437 253.941H305.345H113.913C74.1966 253.941 42 221.744 42 182.028C42 144.227 71.1646 113.238 108.221 110.338C114.35 66.5988 151.917 32.9414 197.345 32.9414C231.048 32.9414 260.422 51.4646 275.845 78.8874C285.087 75.6821 295.012 73.9409 305.345 73.9409C355.051 73.9409 395.345 114.236 395.345 163.941C395.345 178.397 391.936 192.06 385.879 204.164C376.544 233.05 349.431 253.941 317.437 253.941Z" fill="white" fill-opacity="0.5"/>
</g>
</g>
<defs>
<filter id="filter0_f_217_8259" x="6.26562" y="13.4727" width="393.078" height="355.631" filterUnits="userSpaceOnUse" color-interpolation-filters="sRGB">
<feFlood flood-opacity="0" result="BackgroundImageFix"/>
<feBlend mode="normal" in="SourceGraphic" in2="BackgroundImageFix" result="shape"/>
<feGaussianBlur stdDeviation="2" result="effect1_foregroundBlur_217_8259"/>
</filter>
<filter id="filter1_f_217_8259" x="0.300781" y="0.720703" width="153.98" height="125.898" filterUnits="userSpaceOnUse" color-interpolation-filters="sRGB">
<feFlood flood-opacity="0" result="BackgroundImageFix"/>
<feBlend mode="normal" in="SourceGraphic" in2="BackgroundImageFix" result="shape"/>
<feGaussianBlur stdDeviation="10" result="effect1_foregroundBlur_217_8259"/>
</filter>
<filter id="filter2_d_217_8259" x="22" y="4.94141" width="413.344" height="281" filterUnits="userSpaceOnUse" color-interpolation-filters="sRGB">
<feFlood flood-opacity="0" result="BackgroundImageFix"/>
<feColorMatrix in="SourceAlpha" type="matrix" values="0 0 0 0 0 0 0 0 0 0 0 0 0 0 0 0 0 0 127 0" result="hardAlpha"/>
<feOffset dx="10" dy="2"/>
<feGaussianBlur stdDeviation="15"/>
<feColorMatrix type="matrix" values="0 0 0 0 0.501961 0 0 0 0 0.501961 0 0 0 0 0.501961 0 0 0 0.302 0"/>
<feBlend mode="normal" in2="BackgroundImageFix" result="effect1_dropShadow_217_8259"/>
<feBlend mode="normal" in="SourceGraphic" in2="effect1_dropShadow_217_8259" result="shape"/>
</filter>
<linearGradient id="paint0_linear_217_8259" x1="118.914" y1="286.354" x2="81.9877" y2="272.816" gradientUnits="userSpaceOnUse">
<stop stop-color="#FFD100"/>
<stop offset="1" stop-color="#FFF0AA"/>
</linearGradient>
<linearGradient id="paint1_linear_217_8259" x1="218.696" y1="32.9434" x2="321.339" y2="281.107" gradientUnits="userSpaceOnUse">
<stop stop-color="white" stop-opacity="0.604"/>
<stop offset="1" stop-color="white" stop-opacity="0.2"/>
</linearGradient>
</defs>
</svg>
