<svg width="414" height="349" viewBox="0 0 414 349" fill="none" xmlns="http://www.w3.org/2000/svg">
<g filter="url(#filter0_f_217_8337)">
<path d="M116.978 171.357C117.694 171.375 124.96 196.605 124.96 206.409C124.96 216.213 121.386 224.162 116.978 224.162C112.57 224.162 108.996 216.214 108.996 206.41C108.996 196.606 116.262 171.34 116.978 171.357Z" fill="#42A0F0"/>
<path d="M113.122 209.41C114.288 209.767 115.824 208.124 116.552 205.741C117.281 203.358 116.926 201.137 115.76 200.78C114.594 200.424 113.058 202.067 112.329 204.45C111.601 206.833 111.955 209.053 113.122 209.41Z" fill="white"/>
<path d="M172.369 171.357C173.085 171.375 180.351 196.605 180.351 206.409C180.351 216.213 176.777 224.162 172.369 224.162C167.961 224.162 164.387 216.214 164.387 206.41C164.387 196.606 171.653 171.34 172.369 171.357Z" fill="#42A0F0"/>
<path d="M168.512 209.41C169.678 209.767 171.214 208.124 171.943 205.741C172.671 203.358 172.317 201.137 171.151 200.78C169.984 200.424 168.448 202.067 167.72 204.45C166.991 206.833 167.346 209.053 168.512 209.41Z" fill="white"/>
<path d="M231.794 171.357C232.51 171.375 239.776 196.605 239.776 206.409C239.776 216.213 236.202 224.162 231.794 224.162C227.386 224.162 223.812 216.214 223.812 206.41C223.812 196.606 231.078 171.34 231.794 171.357Z" fill="#42A0F0"/>
<path d="M227.938 209.41C229.104 209.767 230.64 208.124 231.369 205.741C232.097 203.358 231.743 201.137 230.576 200.78C229.41 200.424 227.874 202.067 227.146 204.45C226.417 206.833 226.772 209.053 227.938 209.41Z" fill="white"/>
<path d="M286.681 168.357C287.397 168.375 294.663 193.605 294.663 203.409C294.663 213.213 291.089 221.162 286.681 221.162C282.273 221.162 278.699 213.214 278.699 203.41C278.699 193.606 285.965 168.34 286.681 168.357Z" fill="#42A0F0"/>
<path d="M282.825 206.41C283.991 206.767 285.527 205.124 286.255 202.741C286.984 200.358 286.629 198.137 285.463 197.78C284.297 197.424 282.761 199.067 282.032 201.45C281.304 203.833 281.659 206.053 282.825 206.41Z" fill="white"/>
<path d="M200.334 238.357C201.05 238.375 208.316 263.605 208.316 273.409C208.316 283.213 204.742 291.162 200.334 291.162C195.926 291.162 192.352 283.214 192.352 273.41C192.352 263.606 199.618 238.34 200.334 238.357Z" fill="#42A0F0"/>
<path d="M196.477 276.41C197.643 276.767 199.179 275.124 199.908 272.741C200.636 270.358 200.282 268.137 199.115 267.78C197.949 267.424 196.413 269.067 195.685 271.45C194.956 273.833 195.311 276.053 196.477 276.41Z" fill="white"/>
<path d="M259.759 238.357C260.475 238.375 267.741 263.605 267.741 273.409C267.741 283.213 264.167 291.162 259.759 291.162C255.351 291.162 251.777 283.214 251.777 273.41C251.777 263.606 259.043 238.34 259.759 238.357Z" fill="#42A0F0"/>
<path d="M255.903 276.41C257.069 276.767 258.605 275.124 259.334 272.741C260.062 270.358 259.707 268.137 258.541 267.78C257.375 267.424 255.839 269.067 255.111 271.45C254.382 273.833 254.737 276.053 255.903 276.41Z" fill="white"/>
<path d="M322.681 238.357C323.397 238.375 330.663 263.605 330.663 273.409C330.663 283.213 327.089 291.162 322.681 291.162C318.273 291.162 314.699 283.214 314.699 273.41C314.699 263.606 321.965 238.34 322.681 238.357Z" fill="#42A0F0"/>
<path d="M318.825 276.41C319.991 276.767 321.527 275.124 322.255 272.741C322.984 270.358 322.629 268.137 321.463 267.78C320.297 267.424 318.761 269.067 318.032 271.45C317.304 273.833 317.659 276.053 318.825 276.41Z" fill="white"/>
<path d="M140.908 241.357C141.624 241.375 148.89 266.605 148.89 276.409C148.89 286.213 145.316 294.162 140.908 294.162C136.5 294.162 132.926 286.214 132.926 276.41C132.926 266.606 140.192 241.34 140.908 241.357Z" fill="#42A0F0"/>
<path d="M137.051 279.41C138.217 279.767 139.753 278.124 140.482 275.741C141.211 273.358 140.856 271.137 139.69 270.78C138.523 270.424 136.988 272.067 136.259 274.45C135.53 276.833 135.885 279.053 137.051 279.41Z" fill="white"/>
<path d="M84.9781 238.357C85.6941 238.375 92.9601 263.605 92.9601 273.409C92.9601 283.213 89.3861 291.162 84.9781 291.162C80.5701 291.162 76.9961 283.214 76.9961 273.41C76.9961 263.606 84.2621 238.34 84.9781 238.357Z" fill="#42A0F0"/>
<path d="M81.1216 276.41C82.2878 276.767 83.8237 275.124 84.5523 272.741C85.2809 270.358 84.9261 268.137 83.76 267.78C82.5938 267.424 81.0578 269.067 80.3293 271.45C79.6007 273.833 79.9554 276.053 81.1216 276.41Z" fill="white"/>
<path d="M116.978 291.357C117.694 291.375 124.96 316.605 124.96 326.409C124.96 336.213 121.386 344.162 116.978 344.162C112.57 344.162 108.996 336.214 108.996 326.41C108.996 316.606 116.262 291.34 116.978 291.357Z" fill="#42A0F0"/>
<path d="M113.122 329.41C114.288 329.767 115.824 328.124 116.552 325.741C117.281 323.358 116.926 321.137 115.76 320.78C114.594 320.424 113.058 322.067 112.329 324.45C111.601 326.833 111.955 329.053 113.122 329.41Z" fill="white"/>
<path d="M172.369 291.357C173.085 291.375 180.351 316.605 180.351 326.409C180.351 336.213 176.777 344.162 172.369 344.162C167.961 344.162 164.387 336.214 164.387 326.41C164.387 316.606 171.653 291.34 172.369 291.357Z" fill="#42A0F0"/>
<path d="M168.512 329.41C169.678 329.767 171.214 328.124 171.943 325.741C172.671 323.358 172.317 321.137 171.151 320.78C169.984 320.424 168.448 322.067 167.72 324.45C166.991 326.833 167.346 329.053 168.512 329.41Z" fill="white"/>
<path d="M231.794 291.357C232.51 291.375 239.776 316.605 239.776 326.409C239.776 336.213 236.202 344.162 231.794 344.162C227.386 344.162 223.812 336.214 223.812 326.41C223.812 316.606 231.078 291.34 231.794 291.357Z" fill="#42A0F0"/>
<path d="M227.938 329.41C229.104 329.767 230.64 328.124 231.369 325.741C232.097 323.358 231.743 321.137 230.576 320.78C229.41 320.424 227.874 322.067 227.146 324.45C226.417 326.833 226.772 329.053 227.938 329.41Z" fill="white"/>
<path d="M286.681 291.357C287.397 291.375 294.663 316.605 294.663 326.409C294.663 336.213 291.089 344.162 286.681 344.162C282.273 344.162 278.699 336.214 278.699 326.41C278.699 316.606 285.965 291.34 286.681 291.357Z" fill="#42A0F0"/>
<path d="M282.825 329.41C283.991 329.767 285.527 328.124 286.255 325.741C286.984 323.358 286.629 321.137 285.463 320.78C284.297 320.424 282.761 322.067 282.032 324.45C281.304 326.833 281.659 329.053 282.825 329.41Z" fill="white"/>
<g filter="url(#filter1_d_217_8337)">
<path d="M283.343 248.999H91.9111C73.3407 248.985 55.4956 241.788 42.1117 228.914C28.7278 216.041 20.8428 198.489 20.1073 179.933C19.3717 161.377 25.8428 143.256 38.1657 129.363C50.4887 115.471 67.7081 106.883 86.2191 105.399C88.8589 86.7594 97.2762 69.4161 110.287 55.8094C123.297 42.2027 140.246 33.0174 158.75 29.5458C177.253 26.0742 196.379 28.491 213.437 36.4562C230.495 44.4214 244.626 57.534 253.843 73.9494C270.748 68.0976 289.013 67.4137 306.308 71.9851C323.603 76.5565 339.144 86.1759 350.95 99.6164C362.755 113.057 370.29 129.709 372.592 147.449C374.894 165.19 371.861 183.214 363.877 199.222C359.192 213.687 350.045 226.296 337.749 235.239C325.453 244.182 310.64 248.999 295.435 248.999H283.343Z" fill="url(#paint0_linear_217_8337)"/>
<path d="M295.437 248C303.157 248 310.748 246.767 317.998 244.336C325.009 241.985 331.59 238.554 337.56 234.139C343.462 229.775 348.635 224.547 352.936 218.6C357.29 212.58 360.652 205.957 362.928 198.915L362.951 198.843L362.985 198.775C366.011 192.728 368.341 186.33 369.911 179.761C371.526 173 372.345 166.015 372.345 158.999C372.345 152.96 371.737 146.925 370.537 141.062C369.368 135.348 367.623 129.728 365.352 124.357C363.121 119.084 360.361 113.997 357.146 109.24C353.962 104.527 350.306 100.095 346.278 96.0672C342.25 92.0395 337.819 88.3828 333.106 85.1988C328.348 81.9845 323.261 79.2237 317.988 76.9932C312.617 74.7216 306.997 72.9769 301.283 71.8077C295.42 70.6079 289.385 69.9995 283.345 69.9995C273.346 69.9995 263.531 71.6452 254.172 74.8908L253.383 75.1646L252.973 74.4362C245.357 60.8943 234.279 49.5217 220.937 41.5479C214.189 37.5153 206.94 34.399 199.391 32.2857C191.602 30.1055 183.512 29 175.345 29C164.361 29 153.638 30.977 143.475 34.876C133.657 38.6427 124.65 44.0837 116.705 51.048C108.806 57.9722 102.251 66.1422 97.2213 75.3308C92.0685 84.7451 88.7006 94.9073 87.2113 105.535L87.0998 106.33L86.299 106.393C77.3408 107.094 68.7219 109.453 60.6818 113.403C52.8694 117.242 45.8932 122.434 39.947 128.834C27.7289 141.987 21 159.123 21 177.087C21 186.66 22.8748 195.947 26.5723 204.689C28.3495 208.891 30.5491 212.943 33.1102 216.734C35.6472 220.489 38.5607 224.02 41.7699 227.23C44.9791 230.439 48.5104 233.352 52.2655 235.889C56.0565 238.45 60.109 240.65 64.3106 242.427C73.0525 246.125 82.3391 248 91.9127 248H283.345H295.437ZM295.437 249H283.345H91.9127C52.1966 249 20 216.803 20 177.087C20 139.286 49.1646 108.297 86.221 105.396C92.3504 61.6574 129.917 28 175.345 28C209.048 28 238.422 46.5232 253.845 73.946C263.087 70.7407 273.012 68.9995 283.345 68.9995C333.051 68.9995 373.345 109.294 373.345 158.999C373.345 173.456 369.936 187.118 363.879 199.223C354.544 228.108 327.431 249 295.437 249Z" fill="white" fill-opacity="0.5"/>
</g>
</g>
<defs>
<filter id="filter0_f_217_8337" x="16" y="24" width="361.344" height="324.162" filterUnits="userSpaceOnUse" color-interpolation-filters="sRGB">
<feFlood flood-opacity="0" result="BackgroundImageFix"/>
<feBlend mode="normal" in="SourceGraphic" in2="BackgroundImageFix" result="shape"/>
<feGaussianBlur stdDeviation="2" result="effect1_foregroundBlur_217_8337"/>
</filter>
<filter id="filter1_d_217_8337" x="0" y="0" width="413.344" height="281" filterUnits="userSpaceOnUse" color-interpolation-filters="sRGB">
<feFlood flood-opacity="0" result="BackgroundImageFix"/>
<feColorMatrix in="SourceAlpha" type="matrix" values="0 0 0 0 0 0 0 0 0 0 0 0 0 0 0 0 0 0 127 0" result="hardAlpha"/>
<feOffset dx="10" dy="2"/>
<feGaussianBlur stdDeviation="15"/>
<feColorMatrix type="matrix" values="0 0 0 0 0.501961 0 0 0 0 0.501961 0 0 0 0 0.501961 0 0 0 0.302 0"/>
<feBlend mode="normal" in2="BackgroundImageFix" result="effect1_dropShadow_217_8337"/>
<feBlend mode="normal" in="SourceGraphic" in2="effect1_dropShadow_217_8337" result="shape"/>
</filter>
<linearGradient id="paint0_linear_217_8337" x1="196.696" y1="28.002" x2="299.339" y2="276.166" gradientUnits="userSpaceOnUse">
<stop stop-color="white" stop-opacity="0.604"/>
<stop offset="1" stop-color="white" stop-opacity="0.2"/>
</linearGradient>
</defs>
</svg>
