<svg width="424" height="354" viewBox="0 0 424 354" fill="none" xmlns="http://www.w3.org/2000/svg">
<g filter="url(#filter0_f_217_8779)">
<path d="M108.148 214.764C162.548 214.764 206.648 170.44 206.648 115.764C206.648 61.0875 162.548 16.7637 108.148 16.7637C53.7484 16.7637 9.64844 61.0875 9.64844 115.764C9.64844 170.44 53.7484 214.764 108.148 214.764Z" fill="#FA9E42"/>
<g filter="url(#filter1_f_217_8779)">
<path d="M101.03 101.684C133.767 84.2962 152.077 54.7094 141.928 35.6002C131.778 16.4909 97.0115 15.0954 64.2749 32.4833C31.5383 49.8712 13.228 79.4579 23.3778 98.5672C33.5275 117.676 68.2938 119.072 101.03 101.684Z" fill="#F8E36F"/>
</g>
<path d="M300.172 294.818V347.436" stroke="#42A0F0" stroke-width="4" stroke-linecap="round"/>
<path d="M300.066 307.68L309.128 298.326" stroke="#42A0F0" stroke-width="4" stroke-linecap="round"/>
<path d="M300.065 307.68L290.711 298.326" stroke="#42A0F0" stroke-width="4" stroke-linecap="round"/>
<path d="M300.066 335.744L309.128 345.098" stroke="#42A0F0" stroke-width="4" stroke-linecap="round"/>
<path d="M300.065 335.744L290.711 345.098" stroke="#42A0F0" stroke-width="4" stroke-linecap="round"/>
<path d="M322.832 308.191L277.264 334.5" stroke="#42A0F0" stroke-width="4" stroke-linecap="round"/>
<path d="M311.637 314.531L324.269 317.701" stroke="#42A0F0" stroke-width="4" stroke-linecap="round"/>
<path d="M311.639 314.53L315.062 301.752" stroke="#42A0F0" stroke-width="4" stroke-linecap="round"/>
<path d="M287.336 328.562L283.766 341.087" stroke="#42A0F0" stroke-width="4" stroke-linecap="round"/>
<path d="M287.337 328.562L274.559 325.138" stroke="#42A0F0" stroke-width="4" stroke-linecap="round"/>
<path d="M322.578 334.5L277.01 308.191" stroke="#42A0F0" stroke-width="4" stroke-linecap="round"/>
<path d="M311.493 327.977L315.063 340.502" stroke="#42A0F0" stroke-width="4" stroke-linecap="round"/>
<path d="M311.492 327.977L324.27 324.553" stroke="#42A0F0" stroke-width="4" stroke-linecap="round"/>
<path d="M287.191 313.945L274.56 317.116" stroke="#42A0F0" stroke-width="4" stroke-linecap="round"/>
<path d="M287.19 313.945L283.766 301.167" stroke="#42A0F0" stroke-width="4" stroke-linecap="round"/>
<path d="M207.008 294.818V347.436" stroke="#42A0F0" stroke-width="4" stroke-linecap="round"/>
<path d="M206.902 307.68L215.964 298.326" stroke="#42A0F0" stroke-width="4" stroke-linecap="round"/>
<path d="M206.901 307.68L197.547 298.326" stroke="#42A0F0" stroke-width="4" stroke-linecap="round"/>
<path d="M206.902 335.744L215.964 345.098" stroke="#42A0F0" stroke-width="4" stroke-linecap="round"/>
<path d="M206.901 335.744L197.547 345.098" stroke="#42A0F0" stroke-width="4" stroke-linecap="round"/>
<path d="M229.668 308.191L184.099 334.5" stroke="#42A0F0" stroke-width="4" stroke-linecap="round"/>
<path d="M218.473 314.531L231.105 317.701" stroke="#42A0F0" stroke-width="4" stroke-linecap="round"/>
<path d="M218.475 314.53L221.898 301.752" stroke="#42A0F0" stroke-width="4" stroke-linecap="round"/>
<path d="M194.172 328.562L190.602 341.087" stroke="#42A0F0" stroke-width="4" stroke-linecap="round"/>
<path d="M194.173 328.562L181.395 325.138" stroke="#42A0F0" stroke-width="4" stroke-linecap="round"/>
<path d="M229.414 334.5L183.846 308.191" stroke="#42A0F0" stroke-width="4" stroke-linecap="round"/>
<path d="M218.329 327.977L221.899 340.502" stroke="#42A0F0" stroke-width="4" stroke-linecap="round"/>
<path d="M218.328 327.977L231.105 324.553" stroke="#42A0F0" stroke-width="4" stroke-linecap="round"/>
<path d="M194.027 313.945L181.396 317.116" stroke="#42A0F0" stroke-width="4" stroke-linecap="round"/>
<path d="M194.026 313.945L190.602 301.167" stroke="#42A0F0" stroke-width="4" stroke-linecap="round"/>
<path d="M114.008 294.818V347.436" stroke="#42A0F0" stroke-width="4" stroke-linecap="round"/>
<path d="M113.902 307.68L122.964 298.326" stroke="#42A0F0" stroke-width="4" stroke-linecap="round"/>
<path d="M113.901 307.68L104.547 298.326" stroke="#42A0F0" stroke-width="4" stroke-linecap="round"/>
<path d="M113.902 335.744L122.964 345.098" stroke="#42A0F0" stroke-width="4" stroke-linecap="round"/>
<path d="M113.901 335.744L104.547 345.098" stroke="#42A0F0" stroke-width="4" stroke-linecap="round"/>
<path d="M136.668 308.191L91.0994 334.5" stroke="#42A0F0" stroke-width="4" stroke-linecap="round"/>
<path d="M125.473 314.531L138.105 317.701" stroke="#42A0F0" stroke-width="4" stroke-linecap="round"/>
<path d="M125.475 314.53L128.898 301.752" stroke="#42A0F0" stroke-width="4" stroke-linecap="round"/>
<path d="M101.172 328.562L97.6021 341.087" stroke="#42A0F0" stroke-width="4" stroke-linecap="round"/>
<path d="M101.173 328.562L88.3953 325.138" stroke="#42A0F0" stroke-width="4" stroke-linecap="round"/>
<path d="M136.414 334.5L90.8455 308.191" stroke="#42A0F0" stroke-width="4" stroke-linecap="round"/>
<path d="M125.329 327.977L128.899 340.502" stroke="#42A0F0" stroke-width="4" stroke-linecap="round"/>
<path d="M125.328 327.977L138.105 324.553" stroke="#42A0F0" stroke-width="4" stroke-linecap="round"/>
<path d="M101.027 313.945L88.3955 317.116" stroke="#42A0F0" stroke-width="4" stroke-linecap="round"/>
<path d="M101.026 313.945L97.6023 301.167" stroke="#42A0F0" stroke-width="4" stroke-linecap="round"/>
<path d="M159.008 215.818V268.436" stroke="#42A0F0" stroke-width="4" stroke-linecap="round"/>
<path d="M158.902 228.68L167.964 219.326" stroke="#42A0F0" stroke-width="4" stroke-linecap="round"/>
<path d="M158.901 228.68L149.547 219.326" stroke="#42A0F0" stroke-width="4" stroke-linecap="round"/>
<path d="M158.902 256.744L167.964 266.098" stroke="#42A0F0" stroke-width="4" stroke-linecap="round"/>
<path d="M158.901 256.744L149.547 266.098" stroke="#42A0F0" stroke-width="4" stroke-linecap="round"/>
<path d="M181.668 229.191L136.099 255.5" stroke="#42A0F0" stroke-width="4" stroke-linecap="round"/>
<path d="M170.473 235.531L183.105 238.701" stroke="#42A0F0" stroke-width="4" stroke-linecap="round"/>
<path d="M170.475 235.53L173.898 222.752" stroke="#42A0F0" stroke-width="4" stroke-linecap="round"/>
<path d="M146.172 249.562L142.602 262.087" stroke="#42A0F0" stroke-width="4" stroke-linecap="round"/>
<path d="M146.173 249.562L133.395 246.138" stroke="#42A0F0" stroke-width="4" stroke-linecap="round"/>
<path d="M181.414 255.5L135.846 229.191" stroke="#42A0F0" stroke-width="4" stroke-linecap="round"/>
<path d="M170.329 248.977L173.899 261.502" stroke="#42A0F0" stroke-width="4" stroke-linecap="round"/>
<path d="M170.328 248.977L183.105 245.553" stroke="#42A0F0" stroke-width="4" stroke-linecap="round"/>
<path d="M146.027 234.945L133.396 238.116" stroke="#42A0F0" stroke-width="4" stroke-linecap="round"/>
<path d="M146.026 234.945L142.602 222.167" stroke="#42A0F0" stroke-width="4" stroke-linecap="round"/>
<path d="M262.008 215.818V268.436" stroke="#42A0F0" stroke-width="4" stroke-linecap="round"/>
<path d="M261.902 228.68L270.964 219.326" stroke="#42A0F0" stroke-width="4" stroke-linecap="round"/>
<path d="M261.901 228.68L252.547 219.326" stroke="#42A0F0" stroke-width="4" stroke-linecap="round"/>
<path d="M261.902 256.744L270.964 266.098" stroke="#42A0F0" stroke-width="4" stroke-linecap="round"/>
<path d="M261.901 256.744L252.547 266.098" stroke="#42A0F0" stroke-width="4" stroke-linecap="round"/>
<path d="M284.668 229.191L239.099 255.5" stroke="#42A0F0" stroke-width="4" stroke-linecap="round"/>
<path d="M273.473 235.531L286.105 238.701" stroke="#42A0F0" stroke-width="4" stroke-linecap="round"/>
<path d="M273.475 235.53L276.898 222.752" stroke="#42A0F0" stroke-width="4" stroke-linecap="round"/>
<path d="M249.172 249.562L245.602 262.087" stroke="#42A0F0" stroke-width="4" stroke-linecap="round"/>
<path d="M249.173 249.562L236.395 246.138" stroke="#42A0F0" stroke-width="4" stroke-linecap="round"/>
<path d="M284.414 255.5L238.846 229.191" stroke="#42A0F0" stroke-width="4" stroke-linecap="round"/>
<path d="M273.329 248.977L276.899 261.502" stroke="#42A0F0" stroke-width="4" stroke-linecap="round"/>
<path d="M273.328 248.977L286.105 245.553" stroke="#42A0F0" stroke-width="4" stroke-linecap="round"/>
<path d="M249.027 234.945L236.396 238.116" stroke="#42A0F0" stroke-width="4" stroke-linecap="round"/>
<path d="M249.026 234.945L245.602 222.167" stroke="#42A0F0" stroke-width="4" stroke-linecap="round"/>
<g filter="url(#filter2_d_217_8779)">
<path d="M293.343 281.937H101.911C83.3407 281.923 65.4956 274.726 52.1117 261.852C38.7278 248.978 30.8428 231.426 30.1073 212.87C29.3717 194.314 35.8428 176.193 48.1657 162.301C60.4887 148.408 77.7081 139.821 96.2191 138.337C98.8589 119.697 107.276 102.354 120.287 88.7469C133.297 75.1402 150.246 65.9549 168.75 62.4833C187.253 59.0117 206.379 61.4285 223.437 69.3937C240.495 77.3589 254.626 90.4715 263.843 106.887C280.748 101.035 299.013 100.351 316.308 104.923C333.603 109.494 349.144 119.113 360.95 132.554C372.755 145.994 380.29 162.647 382.592 180.387C384.894 198.127 381.861 216.151 373.877 232.16C369.192 246.625 360.045 259.233 347.749 268.176C335.453 277.119 320.64 281.937 305.435 281.937H293.343Z" fill="url(#paint0_linear_217_8779)"/>
<path d="M305.437 280.937C313.157 280.937 320.748 279.704 327.998 277.273C335.009 274.922 341.59 271.492 347.56 267.077C353.462 262.712 358.635 257.484 362.936 251.538C367.29 245.517 370.652 238.894 372.928 231.853L372.951 231.78L372.985 231.713C376.011 225.665 378.341 219.268 379.911 212.698C381.526 205.938 382.345 198.953 382.345 191.937C382.345 185.898 381.737 179.863 380.537 173.999C379.368 168.286 377.623 162.665 375.352 157.295C373.121 152.021 370.361 146.935 367.146 142.177C363.962 137.464 360.306 133.032 356.278 129.005C352.25 124.977 347.819 121.32 343.106 118.136C338.348 114.922 333.261 112.161 327.988 109.931C322.617 107.659 316.997 105.914 311.283 104.745C305.42 103.545 299.385 102.937 293.345 102.937C283.346 102.937 273.531 104.583 264.172 107.828L263.383 108.102L262.973 107.374C255.357 93.8318 244.279 82.4592 230.937 74.4854C224.189 70.4528 216.94 67.3365 209.391 65.2232C201.602 63.043 193.512 61.9375 185.345 61.9375C174.361 61.9375 163.638 63.9145 153.475 67.8135C143.657 71.5802 134.65 77.0212 126.705 83.9855C118.806 90.9097 112.251 99.0797 107.221 108.268C102.069 117.683 98.7006 127.845 97.2113 138.472L97.0998 139.268L96.299 139.331C87.3408 140.032 78.7219 142.39 70.6818 146.341C62.8694 150.179 55.8932 155.371 49.947 161.772C37.7289 174.924 31 192.061 31 210.024C31 219.598 32.8748 228.885 36.5723 237.626C38.3495 241.828 40.5491 245.881 43.1102 249.671C45.6472 253.427 48.5607 256.958 51.7699 260.167C54.9791 263.376 58.5104 266.29 62.2655 268.827C66.0565 271.388 70.109 273.588 74.3106 275.365C83.0525 279.062 92.3391 280.937 101.913 280.937H293.345H305.437ZM305.437 281.937H293.345H101.913C62.1966 281.937 30 249.74 30 210.024C30 172.223 59.1646 141.234 96.221 138.334C102.35 94.5949 139.917 60.9375 185.345 60.9375C219.048 60.9375 248.422 79.4607 263.845 106.883C273.087 103.678 283.012 101.937 293.345 101.937C343.051 101.937 383.345 142.232 383.345 191.937C383.345 206.393 379.936 220.056 373.879 232.16C364.544 261.046 337.431 281.937 305.437 281.937Z" fill="white" fill-opacity="0.5"/>
</g>
</g>
<defs>
<filter id="filter0_f_217_8779" x="5.64844" y="12.7637" width="381.695" height="340.672" filterUnits="userSpaceOnUse" color-interpolation-filters="sRGB">
<feFlood flood-opacity="0" result="BackgroundImageFix"/>
<feBlend mode="normal" in="SourceGraphic" in2="BackgroundImageFix" result="shape"/>
<feGaussianBlur stdDeviation="2" result="effect1_foregroundBlur_217_8779"/>
</filter>
<filter id="filter1_f_217_8779" x="0.578125" y="0.302734" width="164.148" height="133.562" filterUnits="userSpaceOnUse" color-interpolation-filters="sRGB">
<feFlood flood-opacity="0" result="BackgroundImageFix"/>
<feBlend mode="normal" in="SourceGraphic" in2="BackgroundImageFix" result="shape"/>
<feGaussianBlur stdDeviation="10" result="effect1_foregroundBlur_217_8779"/>
</filter>
<filter id="filter2_d_217_8779" x="10" y="32.9375" width="413.344" height="281" filterUnits="userSpaceOnUse" color-interpolation-filters="sRGB">
<feFlood flood-opacity="0" result="BackgroundImageFix"/>
<feColorMatrix in="SourceAlpha" type="matrix" values="0 0 0 0 0 0 0 0 0 0 0 0 0 0 0 0 0 0 127 0" result="hardAlpha"/>
<feOffset dx="10" dy="2"/>
<feGaussianBlur stdDeviation="15"/>
<feColorMatrix type="matrix" values="0 0 0 0 0.501961 0 0 0 0 0.501961 0 0 0 0 0.501961 0 0 0 0.302 0"/>
<feBlend mode="normal" in2="BackgroundImageFix" result="effect1_dropShadow_217_8779"/>
<feBlend mode="normal" in="SourceGraphic" in2="effect1_dropShadow_217_8779" result="shape"/>
</filter>
<linearGradient id="paint0_linear_217_8779" x1="206.696" y1="60.9395" x2="309.339" y2="309.103" gradientUnits="userSpaceOnUse">
<stop stop-color="white" stop-opacity="0.604"/>
<stop offset="1" stop-color="white" stop-opacity="0.2"/>
</linearGradient>
</defs>
</svg>
