<svg width="414" height="331" viewBox="0 0 414 331" fill="none" xmlns="http://www.w3.org/2000/svg">
<g filter="url(#filter0_f_217_8974)">
<path d="M127.043 188.771L193.726 295.464" stroke="#42A0F0" stroke-width="9" stroke-linecap="round"/>
<path d="M143.132 214.986L149.653 184.533" stroke="#42A0F0" stroke-width="9" stroke-linecap="round"/>
<path d="M143.132 214.986L112.309 207.873" stroke="#42A0F0" stroke-width="9" stroke-linecap="round"/>
<path d="M178.695 271.889L208.926 279.372" stroke="#42A0F0" stroke-width="9" stroke-linecap="round"/>
<path d="M178.695 271.889L171.582 302.712" stroke="#42A0F0" stroke-width="9" stroke-linecap="round"/>
<path d="M189.938 187.17L130.88 298.266" stroke="#42A0F0" stroke-width="9" stroke-linecap="round"/>
<path d="M175.278 214.21L204.911 204.63" stroke="#42A0F0" stroke-width="9" stroke-linecap="round"/>
<path d="M175.279 214.209L166.027 183.959" stroke="#42A0F0" stroke-width="9" stroke-linecap="round"/>
<path d="M143.781 273.461L152.416 303.383" stroke="#42A0F0" stroke-width="9" stroke-linecap="round"/>
<path d="M143.782 273.46L113.532 282.712" stroke="#42A0F0" stroke-width="9" stroke-linecap="round"/>
<path d="M222.77 240.836L97.0293 245.239" stroke="#42A0F0" stroke-width="9" stroke-linecap="round"/>
<path d="M192.021 241.66L215.133 262.533" stroke="#42A0F0" stroke-width="9" stroke-linecap="round"/>
<path d="M192.022 241.661L213.594 218.523" stroke="#42A0F0" stroke-width="9" stroke-linecap="round"/>
<path d="M124.961 244.008L103.365 266.446" stroke="#42A0F0" stroke-width="9" stroke-linecap="round"/>
<path d="M124.962 244.009L101.825 222.437" stroke="#42A0F0" stroke-width="9" stroke-linecap="round"/>
<path d="M293.379 256.184L268.007 313.162" stroke="#42A0F0" stroke-width="6.00313" stroke-linecap="round"/>
<path d="M287.063 270.062L301.387 264.301" stroke="#42A0F0" stroke-width="6.00313" stroke-linecap="round"/>
<path d="M287.064 270.061L281.445 255.42" stroke="#42A0F0" stroke-width="6.00313" stroke-linecap="round"/>
<path d="M273.531 300.449L278.833 314.949" stroke="#42A0F0" stroke-width="6.00313" stroke-linecap="round"/>
<path d="M273.532 300.448L258.892 306.067" stroke="#42A0F0" stroke-width="6.00313" stroke-linecap="round"/>
<path d="M311.469 281.59L249.438 288.106" stroke="#42A0F0" stroke-width="6.00313" stroke-linecap="round"/>
<path d="M296.292 283.057L308.443 292.581" stroke="#42A0F0" stroke-width="6.00313" stroke-linecap="round"/>
<path d="M296.291 283.058L306.16 270.871" stroke="#42A0F0" stroke-width="6.00313" stroke-linecap="round"/>
<path d="M263.211 286.533L253.305 298.375" stroke="#42A0F0" stroke-width="6.00313" stroke-linecap="round"/>
<path d="M263.209 286.534L251.023 276.664" stroke="#42A0F0" stroke-width="6.00313" stroke-linecap="round"/>
<path d="M298.508 309.959L261.849 259.496" stroke="#42A0F0" stroke-width="6.00313" stroke-linecap="round"/>
<path d="M289.647 297.55L287.474 312.835" stroke="#42A0F0" stroke-width="6.00313" stroke-linecap="round"/>
<path d="M289.648 297.55L305.137 300.004" stroke="#42A0F0" stroke-width="6.00313" stroke-linecap="round"/>
<path d="M270.098 270.637L254.89 267.979" stroke="#42A0F0" stroke-width="6.00313" stroke-linecap="round"/>
<path d="M270.099 270.636L272.553 255.148" stroke="#42A0F0" stroke-width="6.00313" stroke-linecap="round"/>
<g filter="url(#filter1_d_217_8974)">
<path d="M283.343 248.999H91.9111C73.3407 248.985 55.4956 241.788 42.1117 228.914C28.7278 216.041 20.8428 198.489 20.1073 179.933C19.3717 161.377 25.8428 143.256 38.1657 129.363C50.4887 115.471 67.7081 106.883 86.2191 105.399C88.8589 86.7594 97.2762 69.4161 110.287 55.8094C123.297 42.2027 140.246 33.0174 158.75 29.5458C177.253 26.0742 196.379 28.491 213.437 36.4562C230.495 44.4214 244.626 57.534 253.843 73.9494C270.748 68.0976 289.013 67.4137 306.308 71.9851C323.603 76.5565 339.144 86.1759 350.95 99.6164C362.755 113.057 370.29 129.709 372.592 147.449C374.894 165.19 371.861 183.214 363.877 199.222C359.192 213.687 350.045 226.296 337.749 235.239C325.453 244.182 310.64 248.999 295.435 248.999H283.343Z" fill="url(#paint0_linear_217_8974)"/>
<path d="M295.437 248C303.157 248 310.748 246.767 317.998 244.336C325.009 241.985 331.59 238.554 337.56 234.139C343.462 229.775 348.635 224.547 352.936 218.6C357.29 212.58 360.652 205.957 362.928 198.915L362.951 198.843L362.985 198.775C366.011 192.728 368.341 186.33 369.911 179.761C371.526 173 372.345 166.015 372.345 158.999C372.345 152.96 371.737 146.925 370.537 141.062C369.368 135.348 367.623 129.728 365.352 124.357C363.121 119.084 360.361 113.997 357.146 109.24C353.962 104.527 350.306 100.095 346.278 96.0672C342.25 92.0395 337.819 88.3828 333.106 85.1988C328.348 81.9845 323.261 79.2237 317.988 76.9932C312.617 74.7216 306.997 72.9769 301.283 71.8077C295.42 70.6079 289.385 69.9995 283.345 69.9995C273.346 69.9995 263.531 71.6452 254.172 74.8908L253.383 75.1646L252.973 74.4362C245.357 60.8943 234.279 49.5217 220.937 41.5479C214.189 37.5153 206.94 34.399 199.391 32.2857C191.602 30.1055 183.512 29 175.345 29C164.361 29 153.638 30.977 143.475 34.876C133.657 38.6427 124.65 44.0837 116.705 51.048C108.806 57.9722 102.251 66.1422 97.2213 75.3308C92.0685 84.7451 88.7006 94.9073 87.2113 105.535L87.0998 106.33L86.299 106.393C77.3408 107.094 68.7219 109.453 60.6818 113.403C52.8694 117.242 45.8932 122.434 39.947 128.834C27.7289 141.987 21 159.123 21 177.087C21 186.66 22.8748 195.947 26.5723 204.689C28.3495 208.891 30.5491 212.943 33.1102 216.734C35.6472 220.489 38.5607 224.02 41.7699 227.23C44.9791 230.439 48.5104 233.352 52.2655 235.889C56.0565 238.45 60.109 240.65 64.3106 242.427C73.0525 246.125 82.3391 248 91.9127 248H283.345H295.437ZM295.437 249H283.345H91.9127C52.1966 249 20 216.803 20 177.087C20 139.286 49.1646 108.297 86.221 105.396C92.3504 61.6574 129.917 28 175.345 28C209.048 28 238.422 46.5232 253.845 73.946C263.087 70.7407 273.012 68.9995 283.345 68.9995C333.051 68.9995 373.345 109.294 373.345 158.999C373.345 173.456 369.936 187.118 363.879 199.223C354.544 228.108 327.431 249 295.437 249Z" fill="white" fill-opacity="0.5"/>
</g>
</g>
<defs>
<filter id="filter0_f_217_8974" x="16" y="24" width="361.344" height="297.951" filterUnits="userSpaceOnUse" color-interpolation-filters="sRGB">
<feFlood flood-opacity="0" result="BackgroundImageFix"/>
<feBlend mode="normal" in="SourceGraphic" in2="BackgroundImageFix" result="shape"/>
<feGaussianBlur stdDeviation="2" result="effect1_foregroundBlur_217_8974"/>
</filter>
<filter id="filter1_d_217_8974" x="0" y="0" width="413.344" height="281" filterUnits="userSpaceOnUse" color-interpolation-filters="sRGB">
<feFlood flood-opacity="0" result="BackgroundImageFix"/>
<feColorMatrix in="SourceAlpha" type="matrix" values="0 0 0 0 0 0 0 0 0 0 0 0 0 0 0 0 0 0 127 0" result="hardAlpha"/>
<feOffset dx="10" dy="2"/>
<feGaussianBlur stdDeviation="15"/>
<feColorMatrix type="matrix" values="0 0 0 0 0.501961 0 0 0 0 0.501961 0 0 0 0 0.501961 0 0 0 0.302 0"/>
<feBlend mode="normal" in2="BackgroundImageFix" result="effect1_dropShadow_217_8974"/>
<feBlend mode="normal" in="SourceGraphic" in2="effect1_dropShadow_217_8974" result="shape"/>
</filter>
<linearGradient id="paint0_linear_217_8974" x1="196.696" y1="28.002" x2="299.339" y2="276.166" gradientUnits="userSpaceOnUse">
<stop stop-color="white" stop-opacity="0.604"/>
<stop offset="1" stop-color="white" stop-opacity="0.2"/>
</linearGradient>
</defs>
</svg>
