<svg width="424" height="368" viewBox="0 0 424 368" fill="none" xmlns="http://www.w3.org/2000/svg">
<g filter="url(#filter0_f_217_8914)">
<path d="M137.043 225.537L203.726 332.23" stroke="#42A0F0" stroke-width="9" stroke-linecap="round"/>
<path d="M153.132 251.751L159.653 221.299" stroke="#42A0F0" stroke-width="9" stroke-linecap="round"/>
<path d="M153.132 251.752L122.309 244.639" stroke="#42A0F0" stroke-width="9" stroke-linecap="round"/>
<path d="M188.695 308.654L218.926 316.138" stroke="#42A0F0" stroke-width="9" stroke-linecap="round"/>
<path d="M188.695 308.655L181.582 339.478" stroke="#42A0F0" stroke-width="9" stroke-linecap="round"/>
<path d="M199.938 223.936L140.88 335.031" stroke="#42A0F0" stroke-width="9" stroke-linecap="round"/>
<path d="M185.278 250.975L214.911 241.396" stroke="#42A0F0" stroke-width="9" stroke-linecap="round"/>
<path d="M185.279 250.975L176.027 220.725" stroke="#42A0F0" stroke-width="9" stroke-linecap="round"/>
<path d="M153.781 310.227L162.416 340.149" stroke="#42A0F0" stroke-width="9" stroke-linecap="round"/>
<path d="M153.782 310.226L123.532 319.477" stroke="#42A0F0" stroke-width="9" stroke-linecap="round"/>
<path d="M232.77 277.602L107.029 282.004" stroke="#42A0F0" stroke-width="9" stroke-linecap="round"/>
<path d="M202.021 278.425L225.133 299.298" stroke="#42A0F0" stroke-width="9" stroke-linecap="round"/>
<path d="M202.022 278.426L223.594 255.289" stroke="#42A0F0" stroke-width="9" stroke-linecap="round"/>
<path d="M134.961 280.773L113.365 303.212" stroke="#42A0F0" stroke-width="9" stroke-linecap="round"/>
<path d="M134.962 280.774L111.825 259.203" stroke="#42A0F0" stroke-width="9" stroke-linecap="round"/>
<path d="M303.379 292.949L278.007 349.928" stroke="#42A0F0" stroke-width="6.00313" stroke-linecap="round"/>
<path d="M297.063 306.827L311.387 301.067" stroke="#42A0F0" stroke-width="6.00313" stroke-linecap="round"/>
<path d="M297.064 306.826L291.445 292.186" stroke="#42A0F0" stroke-width="6.00313" stroke-linecap="round"/>
<path d="M283.531 337.215L288.833 351.714" stroke="#42A0F0" stroke-width="6.00313" stroke-linecap="round"/>
<path d="M283.532 337.214L268.892 342.833" stroke="#42A0F0" stroke-width="6.00313" stroke-linecap="round"/>
<path d="M321.469 318.355L259.438 324.872" stroke="#42A0F0" stroke-width="6.00313" stroke-linecap="round"/>
<path d="M306.292 319.823L318.443 329.347" stroke="#42A0F0" stroke-width="6.00313" stroke-linecap="round"/>
<path d="M306.291 319.823L316.16 307.637" stroke="#42A0F0" stroke-width="6.00313" stroke-linecap="round"/>
<path d="M273.211 323.299L263.305 335.14" stroke="#42A0F0" stroke-width="6.00313" stroke-linecap="round"/>
<path d="M273.209 323.3L261.023 313.43" stroke="#42A0F0" stroke-width="6.00313" stroke-linecap="round"/>
<path d="M308.508 346.725L271.849 296.262" stroke="#42A0F0" stroke-width="6.00313" stroke-linecap="round"/>
<path d="M299.647 334.316L297.474 349.6" stroke="#42A0F0" stroke-width="6.00313" stroke-linecap="round"/>
<path d="M299.648 334.315L315.137 336.77" stroke="#42A0F0" stroke-width="6.00313" stroke-linecap="round"/>
<path d="M280.098 307.402L264.89 304.744" stroke="#42A0F0" stroke-width="6.00313" stroke-linecap="round"/>
<path d="M280.099 307.402L282.553 291.913" stroke="#42A0F0" stroke-width="6.00313" stroke-linecap="round"/>
<path d="M108.148 214.764C162.548 214.764 206.648 170.44 206.648 115.764C206.648 61.0875 162.548 16.7637 108.148 16.7637C53.7484 16.7637 9.64844 61.0875 9.64844 115.764C9.64844 170.44 53.7484 214.764 108.148 214.764Z" fill="#FA9E42"/>
<g filter="url(#filter1_f_217_8914)">
<path d="M101.03 101.684C133.767 84.2962 152.077 54.7094 141.928 35.6002C131.778 16.4909 97.0115 15.0954 64.2749 32.4833C31.5383 49.8712 13.228 79.4579 23.3778 98.5672C33.5275 117.676 68.2938 119.072 101.03 101.684Z" fill="#F8E36F"/>
</g>
<g filter="url(#filter2_d_217_8914)">
<path d="M293.343 285.763H101.911C83.3407 285.749 65.4956 278.552 52.1117 265.678C38.7278 252.804 30.8428 235.252 30.1073 216.696C29.3717 198.141 35.8428 180.02 48.1657 166.127C60.4887 152.234 77.7081 143.647 96.2191 142.163C98.8589 123.523 107.276 106.18 120.287 92.5731C133.297 78.9664 150.246 69.7811 168.75 66.3095C187.253 62.8379 206.379 65.2547 223.437 73.2199C240.495 81.185 254.626 94.2977 263.843 110.713C280.748 104.861 299.013 104.177 316.308 108.749C333.603 113.32 349.144 122.94 360.95 136.38C372.755 149.821 380.29 166.473 382.592 184.213C384.894 201.953 381.861 219.977 373.877 235.986C369.192 250.451 360.045 263.059 347.749 272.002C335.453 280.945 320.64 285.763 305.435 285.763H293.343Z" fill="url(#paint0_linear_217_8914)"/>
<path d="M305.437 284.763C313.157 284.763 320.748 283.531 327.998 281.099C335.009 278.749 341.59 275.318 347.56 270.903C353.462 266.538 358.635 261.31 362.936 255.364C367.29 249.343 370.652 242.72 372.928 235.679L372.951 235.607L372.985 235.539C376.011 229.491 378.341 223.094 379.911 216.524C381.526 209.764 382.345 202.779 382.345 195.763C382.345 189.724 381.737 183.689 380.537 177.826C379.368 172.112 377.623 166.491 375.352 161.121C373.121 155.847 370.361 150.761 367.146 146.003C363.962 141.29 360.306 136.859 356.278 132.831C352.25 128.803 347.819 125.146 343.106 121.962C338.348 118.748 333.261 115.987 327.988 113.757C322.617 111.485 316.997 109.741 311.283 108.571C305.42 107.372 299.385 106.763 293.345 106.763C283.346 106.763 273.531 108.409 264.172 111.654L263.383 111.928L262.973 111.2C255.357 97.658 244.279 86.2854 230.937 78.3115C224.189 74.2789 216.94 71.1627 209.391 69.0494C201.602 66.8691 193.512 65.7637 185.345 65.7637C174.361 65.7637 163.638 67.7407 153.475 71.6397C143.657 75.4064 134.65 80.8474 126.705 87.8117C118.806 94.7359 112.251 102.906 107.221 112.094C102.069 121.509 98.7006 131.671 97.2113 142.299L97.0998 143.094L96.299 143.157C87.3408 143.858 78.7219 146.217 70.6818 150.167C62.8694 154.005 55.8932 159.197 49.947 165.598C37.7289 178.751 31 195.887 31 213.85C31 223.424 32.8748 232.711 36.5723 241.453C38.3495 245.654 40.5491 249.707 43.1102 253.498C45.6472 257.253 48.5607 260.784 51.7699 263.993C54.9791 267.202 58.5104 270.116 62.2655 272.653C66.0565 275.214 70.109 277.414 74.3106 279.191C83.0525 282.888 92.3391 284.763 101.913 284.763H293.345H305.437ZM305.437 285.763H293.345H101.913C62.1966 285.763 30 253.567 30 213.85C30 176.049 59.1646 145.06 96.221 142.16C102.35 98.421 139.917 64.7637 185.345 64.7637C219.048 64.7637 248.422 83.2869 263.845 110.71C273.087 107.504 283.012 105.763 293.345 105.763C343.051 105.763 383.345 146.058 383.345 195.763C383.345 210.219 379.936 223.882 373.879 235.986C364.544 264.872 337.431 285.763 305.437 285.763Z" fill="white" fill-opacity="0.5"/>
</g>
</g>
<defs>
<filter id="filter0_f_217_8914" x="5.64844" y="12.7637" width="381.695" height="345.953" filterUnits="userSpaceOnUse" color-interpolation-filters="sRGB">
<feFlood flood-opacity="0" result="BackgroundImageFix"/>
<feBlend mode="normal" in="SourceGraphic" in2="BackgroundImageFix" result="shape"/>
<feGaussianBlur stdDeviation="2" result="effect1_foregroundBlur_217_8914"/>
</filter>
<filter id="filter1_f_217_8914" x="0.578125" y="0.302734" width="164.148" height="133.562" filterUnits="userSpaceOnUse" color-interpolation-filters="sRGB">
<feFlood flood-opacity="0" result="BackgroundImageFix"/>
<feBlend mode="normal" in="SourceGraphic" in2="BackgroundImageFix" result="shape"/>
<feGaussianBlur stdDeviation="10" result="effect1_foregroundBlur_217_8914"/>
</filter>
<filter id="filter2_d_217_8914" x="10" y="36.7637" width="413.344" height="281" filterUnits="userSpaceOnUse" color-interpolation-filters="sRGB">
<feFlood flood-opacity="0" result="BackgroundImageFix"/>
<feColorMatrix in="SourceAlpha" type="matrix" values="0 0 0 0 0 0 0 0 0 0 0 0 0 0 0 0 0 0 127 0" result="hardAlpha"/>
<feOffset dx="10" dy="2"/>
<feGaussianBlur stdDeviation="15"/>
<feColorMatrix type="matrix" values="0 0 0 0 0.501961 0 0 0 0 0.501961 0 0 0 0 0.501961 0 0 0 0.302 0"/>
<feBlend mode="normal" in2="BackgroundImageFix" result="effect1_dropShadow_217_8914"/>
<feBlend mode="normal" in="SourceGraphic" in2="effect1_dropShadow_217_8914" result="shape"/>
</filter>
<linearGradient id="paint0_linear_217_8914" x1="206.696" y1="64.7656" x2="309.339" y2="312.929" gradientUnits="userSpaceOnUse">
<stop stop-color="white" stop-opacity="0.604"/>
<stop offset="1" stop-color="white" stop-opacity="0.2"/>
</linearGradient>
</defs>
</svg>
