<svg width="228" height="188" viewBox="0 0 228 188" fill="none" xmlns="http://www.w3.org/2000/svg">
<g filter="url(#filter0_f_217_9031)">
<path d="M98.5 184L82 42H115L98.5 184Z" fill="#42A0F0"/>
<path d="M95.683 92.6747C98.6979 92.3045 99.8597 81.5615 98.278 68.6796C96.6963 55.7976 92.97 45.6548 89.9551 46.025C86.9402 46.3952 85.7783 57.1382 87.36 70.0201C88.9417 82.9021 92.668 93.0449 95.683 92.6747Z" fill="white"/>
</g>
<g filter="url(#filter1_f_217_9031)">
<path d="M148.5 100L132 42L165 42L148.5 100Z" fill="#42A0F0"/>
<path d="M146.977 72.6245C149.17 72.3553 150.156 65.6935 149.18 57.7451C148.204 49.7967 145.636 43.5714 143.443 43.8406C141.25 44.1099 140.264 50.7716 141.24 58.72C142.216 66.6685 144.784 72.8937 146.977 72.6245Z" fill="white"/>
</g>
<g filter="url(#filter2_f_217_9031)">
<path d="M178.5 82L167 42H190L178.5 82Z" fill="#42A0F0"/>
<path d="M177.348 63.1553C178.862 62.9694 179.544 58.3677 178.87 52.8773C178.195 47.3868 176.421 43.0867 174.906 43.2727C173.392 43.4586 172.711 48.0603 173.385 53.5507C174.059 59.0412 175.833 63.3413 177.348 63.1553Z" fill="white"/>
</g>
<g filter="url(#filter3_f_217_9031)">
<path d="M59 113L36 42H82L59 113Z" fill="#42A0F0"/>
<path d="M56.6034 77.4156C59.5377 76.6289 59.9451 68.6387 57.5134 59.5691C55.0817 50.4995 50.7317 43.7849 47.7974 44.5716C44.8631 45.3583 44.4557 53.3485 46.8874 62.4181C49.3191 71.4877 53.6691 78.2023 56.6034 77.4156Z" fill="white"/>
</g>
<g filter="url(#filter4_f_217_9031)">
<path d="M58.4628 145C59.1388 145.008 65.9998 155.719 65.9998 159.882C65.9995 161.881 65.2053 163.798 63.7919 165.211C62.3785 166.624 60.4615 167.418 58.4628 167.418C56.464 167.418 54.5471 166.624 53.1337 165.211C51.7202 163.798 50.926 161.881 50.9258 159.882C50.9258 155.719 57.7868 144.993 58.4628 145Z" fill="#42A0F0"/>
<path d="M52.3622 161.482C53.1153 161.712 54.0725 160.765 54.5001 159.366C54.9276 157.968 54.6637 156.647 53.9106 156.417C53.1574 156.187 52.2003 157.134 51.7727 158.532C51.3451 159.931 51.609 161.251 52.3622 161.482Z" fill="white"/>
</g>
<g filter="url(#filter5_f_217_9031)">
<path d="M148.561 110C149.067 110.006 154.196 118.015 154.196 121.127C154.196 122.621 153.602 124.055 152.545 125.112C151.489 126.168 150.055 126.762 148.561 126.762C147.067 126.762 145.634 126.169 144.577 125.112C143.52 124.056 142.926 122.623 142.926 121.129C142.926 118.015 148.056 109.995 148.561 110Z" fill="#42A0F0"/>
<path d="M144.264 123.233C144.827 123.406 145.543 122.697 145.862 121.652C146.182 120.606 145.985 119.619 145.422 119.446C144.859 119.274 144.143 119.983 143.823 121.028C143.504 122.074 143.701 123.061 144.264 123.233Z" fill="white"/>
</g>
<g filter="url(#filter6_f_217_9031)">
<path d="M204 4H24C12.9543 4 4 12.9543 4 24C4 35.0457 12.9543 44 24 44H204C215.046 44 224 35.0457 224 24C224 12.9543 215.046 4 204 4Z" fill="url(#paint0_linear_217_9031)"/>
<g filter="url(#filter7_df_217_9031)">
<path d="M194.5 16H34.5C30.3579 16 27 19.3579 27 23.5C27 27.6421 30.3579 31 34.5 31H194.5C198.642 31 202 27.6421 202 23.5C202 19.3579 198.642 16 194.5 16Z" fill="white"/>
</g>
</g>
<defs>
<filter id="filter0_f_217_9031" x="78" y="38" width="41" height="150" filterUnits="userSpaceOnUse" color-interpolation-filters="sRGB">
<feFlood flood-opacity="0" result="BackgroundImageFix"/>
<feBlend mode="normal" in="SourceGraphic" in2="BackgroundImageFix" result="shape"/>
<feGaussianBlur stdDeviation="2" result="effect1_foregroundBlur_217_9031"/>
</filter>
<filter id="filter1_f_217_9031" x="128" y="38" width="41" height="66" filterUnits="userSpaceOnUse" color-interpolation-filters="sRGB">
<feFlood flood-opacity="0" result="BackgroundImageFix"/>
<feBlend mode="normal" in="SourceGraphic" in2="BackgroundImageFix" result="shape"/>
<feGaussianBlur stdDeviation="2" result="effect1_foregroundBlur_217_9031"/>
</filter>
<filter id="filter2_f_217_9031" x="163" y="38" width="31" height="48" filterUnits="userSpaceOnUse" color-interpolation-filters="sRGB">
<feFlood flood-opacity="0" result="BackgroundImageFix"/>
<feBlend mode="normal" in="SourceGraphic" in2="BackgroundImageFix" result="shape"/>
<feGaussianBlur stdDeviation="2" result="effect1_foregroundBlur_217_9031"/>
</filter>
<filter id="filter3_f_217_9031" x="32" y="38" width="54" height="79" filterUnits="userSpaceOnUse" color-interpolation-filters="sRGB">
<feFlood flood-opacity="0" result="BackgroundImageFix"/>
<feBlend mode="normal" in="SourceGraphic" in2="BackgroundImageFix" result="shape"/>
<feGaussianBlur stdDeviation="2" result="effect1_foregroundBlur_217_9031"/>
</filter>
<filter id="filter4_f_217_9031" x="48.9258" y="143" width="19.0742" height="26.418" filterUnits="userSpaceOnUse" color-interpolation-filters="sRGB">
<feFlood flood-opacity="0" result="BackgroundImageFix"/>
<feBlend mode="normal" in="SourceGraphic" in2="BackgroundImageFix" result="shape"/>
<feGaussianBlur stdDeviation="1" result="effect1_foregroundBlur_217_9031"/>
</filter>
<filter id="filter5_f_217_9031" x="140.926" y="108" width="15.2695" height="20.7617" filterUnits="userSpaceOnUse" color-interpolation-filters="sRGB">
<feFlood flood-opacity="0" result="BackgroundImageFix"/>
<feBlend mode="normal" in="SourceGraphic" in2="BackgroundImageFix" result="shape"/>
<feGaussianBlur stdDeviation="1" result="effect1_foregroundBlur_217_9031"/>
</filter>
<filter id="filter6_f_217_9031" x="0" y="0" width="228" height="48" filterUnits="userSpaceOnUse" color-interpolation-filters="sRGB">
<feFlood flood-opacity="0" result="BackgroundImageFix"/>
<feBlend mode="normal" in="SourceGraphic" in2="BackgroundImageFix" result="shape"/>
<feGaussianBlur stdDeviation="2" result="effect1_foregroundBlur_217_9031"/>
</filter>
<filter id="filter7_df_217_9031" x="23" y="12" width="183" height="27" filterUnits="userSpaceOnUse" color-interpolation-filters="sRGB">
<feFlood flood-opacity="0" result="BackgroundImageFix"/>
<feColorMatrix in="SourceAlpha" type="matrix" values="0 0 0 0 0 0 0 0 0 0 0 0 0 0 0 0 0 0 127 0" result="hardAlpha"/>
<feOffset dy="4"/>
<feGaussianBlur stdDeviation="2"/>
<feColorMatrix type="matrix" values="0 0 0 0 0 0 0 0 0 0 0 0 0 0 0 0 0 0 0.25 0"/>
<feBlend mode="normal" in2="BackgroundImageFix" result="effect1_dropShadow_217_9031"/>
<feBlend mode="normal" in="SourceGraphic" in2="effect1_dropShadow_217_9031" result="shape"/>
<feGaussianBlur stdDeviation="2" result="effect2_foregroundBlur_217_9031"/>
</filter>
<linearGradient id="paint0_linear_217_9031" x1="13.46" y1="4" x2="24.0363" y2="71.7967" gradientUnits="userSpaceOnUse">
<stop stop-color="#42A0F0"/>
<stop offset="1" stop-color="#42A0F0" stop-opacity="0.596"/>
</linearGradient>
</defs>
</svg>
