<svg width="180" height="342" viewBox="0 0 180 342" fill="none" xmlns="http://www.w3.org/2000/svg">
<g filter="url(#filter0_f_217_9913)">
<g filter="url(#filter1_d_217_9913)">
<path d="M47.0229 199.055L47.0229 63C47.0229 53.7174 50.7103 44.815 57.2741 38.2513C63.8379 31.6875 72.7403 28 82.0229 28C91.3054 28 100.208 31.6875 106.772 38.2513C113.335 44.815 117.023 53.7174 117.023 63L117.023 201.97C126.099 209.088 132.932 218.672 136.703 229.573C140.474 240.475 141.023 252.232 138.285 263.437C135.546 274.642 129.636 284.821 121.263 292.755C112.889 300.688 102.407 306.04 91.0699 308.17C86.9551 309.261 82.6771 309.6 78.4419 309.17C65.6698 308.837 53.3373 304.437 43.2398 296.609C33.1422 288.781 25.8067 277.935 22.3011 265.649C18.7956 253.363 19.303 240.278 23.7495 228.301C28.196 216.323 36.3494 206.077 47.0229 199.055V199.055Z" fill="url(#paint0_linear_217_9913)"/>
<path d="M20.9994 249.189C20.9994 257.029 22.5122 264.644 25.4958 271.821C28.3777 278.754 32.5107 285.005 37.7798 290.402C40.3752 293.061 43.234 295.485 46.277 297.609C49.3462 299.75 52.6314 301.605 56.0412 303.122C63.123 306.273 70.6686 307.971 78.4686 308.169L78.5065 308.17L78.5443 308.174C79.6916 308.291 80.8623 308.35 82.0238 308.35C85.0046 308.35 87.9617 307.964 90.8131 307.203L90.85 307.193L90.8876 307.186C97.627 305.929 104.043 303.521 109.956 300.029C115.747 296.61 120.88 292.258 125.213 287.096C129.578 281.896 132.983 276.046 135.333 269.71C137.766 263.153 139 256.248 139 249.189C139 244.564 138.463 239.958 137.404 235.501C136.375 231.169 134.847 226.949 132.862 222.957C130.913 219.036 128.517 215.323 125.74 211.919C122.98 208.536 119.84 205.453 116.406 202.757L116.024 202.457V201.97L116.024 63.0001C116.024 58.4096 115.125 53.957 113.352 49.766C111.64 45.7174 109.188 42.0811 106.066 38.9583C102.943 35.8355 99.3066 33.3839 95.258 31.6715C91.0669 29.8988 86.6143 29 82.0238 29C77.4334 29 72.9808 29.8988 68.7897 31.6715C64.7411 33.3839 61.1049 35.8355 57.982 38.9583C54.8592 42.0811 52.4076 45.7174 50.6952 49.766C48.9225 53.957 48.0237 58.4096 48.0237 63.0001L48.0237 199.055V199.593L47.574 199.89C39.5705 205.164 32.8994 212.384 28.282 220.769C25.9347 225.031 24.124 229.575 22.9001 234.275C21.6389 239.117 20.9994 244.135 20.9994 249.189ZM19.9994 249.189C19.9994 228.231 30.7423 209.785 47.0237 199.055L47.0237 63.0001C47.0237 43.6699 62.6936 28 82.0238 28C101.354 28 117.024 43.6699 117.024 63.0001L117.024 201.97C131.013 212.955 140 230.023 140 249.189C140 278.543 118.92 302.975 91.071 308.169C88.1848 308.94 85.1527 309.35 82.0238 309.35C80.8145 309.35 79.6209 309.289 78.4431 309.169C46.0246 308.344 19.9994 281.806 19.9994 249.189Z" fill="white" fill-opacity="0.5"/>
</g>
<path d="M36.125 250.553C36.1231 242.09 38.4559 233.79 42.8668 226.568C47.2776 219.345 53.5954 213.479 61.125 209.616V159.553H103.125V209.615C110.395 213.345 116.54 218.944 120.928 225.836C125.316 232.729 127.789 240.666 128.093 248.831C128.397 256.996 126.521 265.095 122.657 272.294C118.793 279.494 113.081 285.534 106.109 289.794C99.1367 294.054 91.1555 296.38 82.9861 296.533C74.8168 296.686 66.7541 294.661 59.6273 290.664C52.5004 286.668 46.5665 280.846 42.4359 273.796C38.3053 266.746 36.127 258.724 36.125 250.553V250.553Z" fill="white"/>
</g>
<defs>
<filter id="filter0_f_217_9913" x="16" y="24" width="128" height="289.352" filterUnits="userSpaceOnUse" color-interpolation-filters="sRGB">
<feFlood flood-opacity="0" result="BackgroundImageFix"/>
<feBlend mode="normal" in="SourceGraphic" in2="BackgroundImageFix" result="shape"/>
<feGaussianBlur stdDeviation="2" result="effect1_foregroundBlur_217_9913"/>
</filter>
<filter id="filter1_d_217_9913" x="0" y="0" width="180" height="341.352" filterUnits="userSpaceOnUse" color-interpolation-filters="sRGB">
<feFlood flood-opacity="0" result="BackgroundImageFix"/>
<feColorMatrix in="SourceAlpha" type="matrix" values="0 0 0 0 0 0 0 0 0 0 0 0 0 0 0 0 0 0 127 0" result="hardAlpha"/>
<feOffset dx="10" dy="2"/>
<feGaussianBlur stdDeviation="15"/>
<feColorMatrix type="matrix" values="0 0 0 0 0.501961 0 0 0 0 0.501961 0 0 0 0 0.501961 0 0 0 0.302 0"/>
<feBlend mode="normal" in2="BackgroundImageFix" result="effect1_dropShadow_217_9913"/>
<feBlend mode="normal" in="SourceGraphic" in2="effect1_dropShadow_217_9913" result="shape"/>
</filter>
<linearGradient id="paint0_linear_217_9913" x1="124.88" y1="141.947" x2="6.83021" y2="169.913" gradientUnits="userSpaceOnUse">
<stop stop-color="white" stop-opacity="0.596"/>
<stop offset="1" stop-color="#F7F7F7" stop-opacity="0.204"/>
</linearGradient>
</defs>
</svg>
