<svg width="216" height="342" viewBox="0 0 216 342" fill="none" xmlns="http://www.w3.org/2000/svg">
<g filter="url(#filter0_f_217_9849)">
<path d="M67.2383 67.0977L67.2383 185.582" stroke="#42A0F0" stroke-width="10" stroke-linecap="round"/>
<path d="M67 96.0601L87.406 74.9961" stroke="#42A0F0" stroke-width="10" stroke-linecap="round"/>
<path d="M67.0015 96.0601L45.9375 74.9961" stroke="#42A0F0" stroke-width="10" stroke-linecap="round"/>
<path d="M67 159.252L87.406 180.316" stroke="#42A0F0" stroke-width="10" stroke-linecap="round"/>
<path d="M67.0015 159.252L45.9375 180.316" stroke="#42A0F0" stroke-width="10" stroke-linecap="round"/>
<path d="M118.262 97.209L15.6516 156.451" stroke="#42A0F0" stroke-width="10" stroke-linecap="round"/>
<path d="M93.0588 111.485L121.504 118.625" stroke="#42A0F0" stroke-width="10" stroke-linecap="round"/>
<path d="M93.0596 111.485L100.77 82.7109" stroke="#42A0F0" stroke-width="10" stroke-linecap="round"/>
<path d="M38.332 143.08L30.2931 171.284" stroke="#42A0F0" stroke-width="10" stroke-linecap="round"/>
<path d="M38.3328 143.08L9.55882 135.37" stroke="#42A0F0" stroke-width="10" stroke-linecap="round"/>
<path d="M117.691 156.451L15.0813 97.2092" stroke="#42A0F0" stroke-width="10" stroke-linecap="round"/>
<path d="M92.7307 141.765L100.77 169.969" stroke="#42A0F0" stroke-width="10" stroke-linecap="round"/>
<path d="M92.7299 141.765L121.504 134.055" stroke="#42A0F0" stroke-width="10" stroke-linecap="round"/>
<path d="M38.0039 110.17L9.55895 117.31" stroke="#42A0F0" stroke-width="10" stroke-linecap="round"/>
<path d="M38.0032 110.17L30.2932 81.3957" stroke="#42A0F0" stroke-width="10" stroke-linecap="round"/>
</g>
<g filter="url(#filter1_f_217_9849)">
<g filter="url(#filter2_d_217_9849)">
<path d="M82.4018 199.055L82.4018 63C82.4018 53.7174 86.0892 44.815 92.653 38.2513C99.2168 31.6875 108.119 28 117.402 28C126.684 28 135.587 31.6875 142.15 38.2513C148.714 44.815 152.402 53.7174 152.402 63L152.402 201.97C161.478 209.088 168.311 218.672 172.082 229.573C175.853 240.475 176.402 252.232 173.663 263.437C170.925 274.642 165.015 284.821 156.642 292.755C148.268 300.688 137.785 306.04 126.449 308.17C122.334 309.261 118.056 309.6 113.821 309.17C101.049 308.837 88.7162 304.437 78.6187 296.609C68.5211 288.781 61.1856 277.935 57.68 265.649C54.1745 253.363 54.6819 240.278 59.1284 228.301C63.5749 216.323 71.7283 206.077 82.4018 199.055V199.055Z" fill="url(#paint0_linear_217_9849)"/>
<path d="M56.3783 249.189C56.3783 257.029 57.8911 264.644 60.8747 271.821C63.7566 278.754 67.8896 285.005 73.1587 290.402C75.7541 293.061 78.6129 295.485 81.6559 297.609C84.7251 299.75 88.0103 301.605 91.4201 303.122C98.5019 306.273 106.048 307.971 113.847 308.169L113.885 308.17L113.923 308.174C115.07 308.291 116.241 308.35 117.403 308.35C120.383 308.35 123.341 307.964 126.192 307.203L126.229 307.193L126.267 307.186C133.006 305.929 139.422 303.521 145.335 300.029C151.126 296.61 156.259 292.258 160.592 287.096C164.957 281.896 168.362 276.046 170.712 269.71C173.145 263.153 174.379 256.248 174.379 249.189C174.379 244.564 173.842 239.958 172.783 235.501C171.754 231.169 170.226 226.949 168.241 222.957C166.292 219.036 163.896 215.323 161.119 211.919C158.359 208.536 155.219 205.453 151.785 202.757L151.403 202.457V201.97L151.403 63.0001C151.403 58.4096 150.504 53.957 148.731 49.766C147.019 45.7174 144.567 42.0811 141.444 38.9583C138.322 35.8355 134.685 33.3839 130.637 31.6715C126.446 29.8988 121.993 29 117.403 29C112.812 29 108.36 29.8988 104.169 31.6715C100.12 33.3839 96.4838 35.8355 93.3609 38.9583C90.2381 42.0811 87.7865 45.7174 86.0741 49.766C84.3014 53.957 83.4026 58.4096 83.4026 63.0001L83.4026 199.055V199.593L82.9529 199.89C74.9494 205.164 68.2783 212.384 63.6609 220.769C61.3136 225.031 59.5029 229.575 58.279 234.275C57.0178 239.117 56.3783 244.135 56.3783 249.189ZM55.3783 249.189C55.3783 228.231 66.1212 209.785 82.4026 199.055L82.4026 63.0001C82.4026 43.6699 98.0725 28 117.403 28C136.733 28 152.403 43.6699 152.403 63.0001L152.403 201.97C166.391 212.955 175.379 230.023 175.379 249.189C175.379 278.543 154.299 302.975 126.45 308.169C123.564 308.94 120.532 309.35 117.403 309.35C116.193 309.35 115 309.289 113.822 309.169C81.4035 308.344 55.3783 281.806 55.3783 249.189Z" fill="white" fill-opacity="0.5"/>
</g>
<path d="M71.5039 250.553C71.502 242.09 73.8348 233.79 78.2457 226.568C82.6565 219.345 88.9743 213.479 96.5039 209.616V159.553H138.504V209.615C145.774 213.345 151.918 218.944 156.307 225.836C160.695 232.729 163.168 240.666 163.472 248.831C163.776 256.996 161.9 265.095 158.036 272.294C154.172 279.494 148.46 285.534 141.488 289.794C134.516 294.054 126.534 296.38 118.365 296.533C110.196 296.686 102.133 294.661 95.0062 290.664C87.8793 286.668 81.9454 280.846 77.8148 273.796C73.6842 266.746 71.5059 258.724 71.5039 250.553V250.553Z" fill="white"/>
</g>
<defs>
<filter id="filter0_f_217_9849" x="0.558594" y="58.0977" width="129.945" height="136.484" filterUnits="userSpaceOnUse" color-interpolation-filters="sRGB">
<feFlood flood-opacity="0" result="BackgroundImageFix"/>
<feBlend mode="normal" in="SourceGraphic" in2="BackgroundImageFix" result="shape"/>
<feGaussianBlur stdDeviation="2" result="effect1_foregroundBlur_217_9849"/>
</filter>
<filter id="filter1_f_217_9849" x="51.3789" y="24" width="128" height="289.352" filterUnits="userSpaceOnUse" color-interpolation-filters="sRGB">
<feFlood flood-opacity="0" result="BackgroundImageFix"/>
<feBlend mode="normal" in="SourceGraphic" in2="BackgroundImageFix" result="shape"/>
<feGaussianBlur stdDeviation="2" result="effect1_foregroundBlur_217_9849"/>
</filter>
<filter id="filter2_d_217_9849" x="35.3789" y="0" width="180" height="341.352" filterUnits="userSpaceOnUse" color-interpolation-filters="sRGB">
<feFlood flood-opacity="0" result="BackgroundImageFix"/>
<feColorMatrix in="SourceAlpha" type="matrix" values="0 0 0 0 0 0 0 0 0 0 0 0 0 0 0 0 0 0 127 0" result="hardAlpha"/>
<feOffset dx="10" dy="2"/>
<feGaussianBlur stdDeviation="15"/>
<feColorMatrix type="matrix" values="0 0 0 0 0.501961 0 0 0 0 0.501961 0 0 0 0 0.501961 0 0 0 0.302 0"/>
<feBlend mode="normal" in2="BackgroundImageFix" result="effect1_dropShadow_217_9849"/>
<feBlend mode="normal" in="SourceGraphic" in2="effect1_dropShadow_217_9849" result="shape"/>
</filter>
<linearGradient id="paint0_linear_217_9849" x1="160.259" y1="141.947" x2="42.2091" y2="169.913" gradientUnits="userSpaceOnUse">
<stop stop-color="white" stop-opacity="0.596"/>
<stop offset="1" stop-color="#F7F7F7" stop-opacity="0.204"/>
</linearGradient>
</defs>
</svg>
