<svg width="311" height="186" viewBox="0 0 311 186" fill="none" xmlns="http://www.w3.org/2000/svg">
<g filter="url(#filter0_f_217_9920)">
<path d="M88.8398 87.6389C88.8398 87.6389 225.929 88.9529 255.61 80.3329C285.291 71.7129 285.253 26.9749 255.61 15.9469C225.967 4.91893 215.836 44.3379 215.836 44.3379" stroke="#D0D0D0" stroke-width="20" stroke-linecap="round"/>
<path d="M122.863 134.655C122.863 134.655 223.471 125.565 267.824 134.655C312.177 143.745 298.054 169.822 277.034 171.014C256.014 172.206 236.617 158.394 236.617 158.394" stroke="#D0D0D0" stroke-width="20" stroke-linecap="round"/>
<path d="M34.1523 139.59H74.1523" stroke="#D0D0D0" stroke-width="20" stroke-linecap="round"/>
<path d="M14 31.589C14 31.589 44.519 34.119 80.682 34.119C116.845 34.119 165.862 29.373 165.862 29.373" stroke="#D0D0D0" stroke-width="20" stroke-linecap="round"/>
</g>
<defs>
<filter id="filter0_f_217_9920" x="0" y="0" width="310.98" height="185.088" filterUnits="userSpaceOnUse" color-interpolation-filters="sRGB">
<feFlood flood-opacity="0" result="BackgroundImageFix"/>
<feBlend mode="normal" in="SourceGraphic" in2="BackgroundImageFix" result="shape"/>
<feGaussianBlur stdDeviation="2" result="effect1_foregroundBlur_217_9920"/>
</filter>
</defs>
</svg>
