<svg width="442" height="311" viewBox="0 0 442 311" fill="none" xmlns="http://www.w3.org/2000/svg">
<g filter="url(#filter0_f_217_9956)">
<path d="M107.267 6.72311C114.277 6.72135 121.269 7.42963 128.136 8.83711C141.389 11.5668 153.973 16.8888 165.163 24.4971C180.666 35.0048 193.052 49.4945 201.02 66.4436C208.988 83.3926 212.243 102.175 210.443 120.817C208.644 139.458 201.855 157.271 190.792 172.383C179.729 187.495 164.8 199.347 147.573 206.695C141.311 209.356 134.799 211.388 128.135 212.76C113.684 215.69 98.7744 215.508 84.3996 212.224C70.0247 208.941 56.5145 202.632 44.769 193.718C33.0235 184.804 23.3122 173.489 16.2822 160.528C9.25222 147.566 5.06481 133.256 3.99895 118.549C15.3304 121.201 27.1014 121.372 38.5049 119.049C48.738 116.953 58.4582 112.863 67.1109 107.012C79.9733 98.3288 90.0412 86.1017 96.095 71.8121C98.1405 66.9726 99.7017 61.9424 100.756 56.7951C103.003 45.7664 102.92 34.3898 100.512 23.3951C99.3006 17.8974 97.5093 12.5437 95.168 7.42412C99.184 6.95677 103.224 6.7227 107.267 6.72311V6.72311Z" fill="#713FFD"/>
<g filter="url(#filter1_f_217_9956)">
<path d="M177.338 38.8969C154.094 17.9674 123.643 13.8921 109.324 29.7945C95.0057 45.697 102.242 75.5551 125.486 96.4846C148.731 117.414 179.182 121.489 193.5 105.587C207.819 89.6845 200.583 59.8264 177.338 38.8969Z" fill="#A586FC"/>
</g>
<g filter="url(#filter2_d_217_9956)">
<path d="M311.995 278.874H120.563C101.993 278.86 84.148 271.663 70.7641 258.789C57.3802 245.916 49.4951 228.364 48.7596 209.808C48.0241 191.252 54.4951 173.131 66.8181 159.238C79.141 145.346 96.3604 136.758 114.871 135.274C117.511 116.634 125.928 99.2911 138.939 85.6844C151.95 72.0777 168.899 62.8924 187.402 59.4208C205.905 55.9492 225.031 58.366 242.089 66.3312C259.147 74.2964 273.278 87.409 282.495 103.824C299.401 97.9725 317.666 97.2887 334.961 101.86C352.257 106.432 367.798 116.052 379.604 129.493C391.409 142.934 398.943 159.587 401.245 177.328C403.547 195.068 400.512 213.093 392.527 229.101C387.842 243.565 378.695 256.172 366.399 265.114C354.103 274.056 339.291 278.874 324.087 278.874H311.995Z" fill="url(#paint0_linear_217_9956)"/>
<path d="M324.089 277.875C331.809 277.875 339.398 276.642 346.648 274.211C353.658 271.86 360.24 268.43 366.21 264.015C372.111 259.651 377.284 254.423 381.585 248.477C385.939 242.457 389.302 235.835 391.578 228.794L391.601 228.722L391.635 228.654C394.662 222.606 396.993 216.208 398.563 209.638C400.179 202.878 400.998 195.892 400.998 188.874C400.998 182.835 400.389 176.8 399.19 170.937C398.02 165.223 396.276 159.603 394.004 154.232C391.774 148.959 389.013 143.872 385.798 139.115C382.614 134.402 378.958 129.97 374.93 125.942C370.902 121.914 366.471 118.258 361.758 115.074C357 111.859 351.913 109.099 346.64 106.868C341.269 104.597 335.649 102.852 329.935 101.683C324.072 100.483 318.037 99.8745 311.998 99.8745C301.998 99.8745 292.183 101.52 282.825 104.766L282.035 105.04L281.625 104.311C274.01 90.7692 262.932 79.3966 249.589 71.4228C242.842 67.3902 235.592 64.274 228.043 62.1607C220.254 59.9805 212.164 58.875 203.998 58.875C193.013 58.875 182.29 60.852 172.127 64.751C162.309 68.5177 153.302 73.9587 145.358 80.923C137.458 87.8472 130.903 96.0172 125.874 105.206C120.721 114.62 117.353 124.782 115.864 135.41L115.752 136.205L114.951 136.268C105.993 136.969 97.3743 139.328 89.3341 143.278C81.5217 147.117 74.5455 152.309 68.5993 158.709C56.3812 171.862 49.6523 188.998 49.6523 206.962C49.6523 216.535 51.5271 225.822 55.2246 234.564C57.0018 238.766 59.2015 242.818 61.7626 246.609C64.2995 250.364 67.2131 253.895 70.4223 257.105C73.6314 260.314 77.1627 263.227 80.9178 265.764C84.7088 268.325 88.7613 270.525 92.963 272.302C101.705 276 110.991 277.875 120.565 277.875H311.998H324.089ZM324.089 278.875H311.998H120.565C80.8489 278.875 48.6523 246.678 48.6523 206.962C48.6523 169.161 77.817 138.172 114.873 135.271C121.003 91.5324 158.569 57.875 203.998 57.875C237.7 57.875 267.075 76.3981 282.497 103.821C291.739 100.616 301.665 98.8745 311.998 98.8745C361.703 98.8745 401.998 139.169 401.998 188.874C401.998 203.334 398.588 216.996 392.529 229.102C383.192 257.984 356.08 278.875 324.089 278.875Z" fill="white" fill-opacity="0.5"/>
</g>
</g>
<defs>
<filter id="filter0_f_217_9956" x="0" y="2.72266" width="405.996" height="280.152" filterUnits="userSpaceOnUse" color-interpolation-filters="sRGB">
<feFlood flood-opacity="0" result="BackgroundImageFix"/>
<feBlend mode="normal" in="SourceGraphic" in2="BackgroundImageFix" result="shape"/>
<feGaussianBlur stdDeviation="2" result="effect1_foregroundBlur_217_9956"/>
</filter>
<filter id="filter1_f_217_9956" x="81.9727" y="0.09375" width="138.879" height="135.193" filterUnits="userSpaceOnUse" color-interpolation-filters="sRGB">
<feFlood flood-opacity="0" result="BackgroundImageFix"/>
<feBlend mode="normal" in="SourceGraphic" in2="BackgroundImageFix" result="shape"/>
<feGaussianBlur stdDeviation="10" result="effect1_foregroundBlur_217_9956"/>
</filter>
<filter id="filter2_d_217_9956" x="28.6523" y="29.875" width="413.344" height="281" filterUnits="userSpaceOnUse" color-interpolation-filters="sRGB">
<feFlood flood-opacity="0" result="BackgroundImageFix"/>
<feColorMatrix in="SourceAlpha" type="matrix" values="0 0 0 0 0 0 0 0 0 0 0 0 0 0 0 0 0 0 127 0" result="hardAlpha"/>
<feOffset dx="10" dy="2"/>
<feGaussianBlur stdDeviation="15"/>
<feColorMatrix type="matrix" values="0 0 0 0 0.501961 0 0 0 0 0.501961 0 0 0 0 0.501961 0 0 0 0.302 0"/>
<feBlend mode="normal" in2="BackgroundImageFix" result="effect1_dropShadow_217_9956"/>
<feBlend mode="normal" in="SourceGraphic" in2="effect1_dropShadow_217_9956" result="shape"/>
</filter>
<linearGradient id="paint0_linear_217_9956" x1="225.348" y1="57.877" x2="327.991" y2="306.041" gradientUnits="userSpaceOnUse">
<stop stop-color="white" stop-opacity="0.604"/>
<stop offset="1" stop-color="white" stop-opacity="0.2"/>
</linearGradient>
</defs>
</svg>
