<svg width="437" height="346" viewBox="0 0 437 346" fill="none" xmlns="http://www.w3.org/2000/svg">
<g filter="url(#filter0_f_217_10001)">
<path d="M127.703 218.359C128.334 218.377 134.738 243.607 134.738 253.411C134.738 263.215 131.588 271.164 127.703 271.164C123.818 271.164 120.668 263.216 120.668 253.412C120.668 243.608 127.068 218.342 127.703 218.359Z" fill="#42A0F0"/>
<path d="M126.632 247.78C127.659 248.137 127.972 250.358 127.33 252.741C126.688 255.124 125.333 256.766 124.306 256.41C123.278 256.054 122.965 253.833 123.608 251.449C124.25 249.066 125.603 247.424 126.632 247.78Z" fill="white"/>
<path d="M187.633 218.359C188.264 218.377 194.668 243.607 194.668 253.411C194.668 263.215 191.518 271.164 187.633 271.164C183.748 271.164 180.598 263.216 180.598 253.412C180.598 243.608 186.998 218.342 187.633 218.359Z" fill="#42A0F0"/>
<path d="M186.561 247.78C187.589 248.137 187.901 250.358 187.259 252.741C186.617 255.124 185.263 256.766 184.235 256.41C183.208 256.054 182.894 253.833 183.537 251.449C184.18 249.066 185.532 247.424 186.561 247.78Z" fill="white"/>
<path d="M247.566 218.359C248.197 218.377 254.601 243.607 254.601 253.411C254.601 263.215 251.451 271.164 247.566 271.164C243.681 271.164 240.531 263.216 240.531 253.412C240.531 243.608 246.931 218.342 247.566 218.359Z" fill="#42A0F0"/>
<path d="M246.495 247.78C247.522 248.137 247.835 250.358 247.193 252.741C246.551 255.124 245.197 256.766 244.169 256.41C243.141 256.054 242.828 253.833 243.471 251.449C244.114 249.066 245.466 247.424 246.495 247.78Z" fill="white"/>
<path d="M307.496 215.359C308.127 215.377 314.531 240.607 314.531 250.411C314.531 260.215 311.381 268.164 307.496 268.164C303.611 268.164 300.461 260.216 300.461 250.412C300.461 240.608 306.861 215.342 307.496 215.359Z" fill="#42A0F0"/>
<path d="M306.424 244.78C307.452 245.137 307.764 247.358 307.123 249.741C306.481 252.124 305.126 253.766 304.099 253.41C303.071 253.054 302.758 250.833 303.401 248.449C304.043 246.066 305.396 244.424 306.424 244.78Z" fill="white"/>
<path d="M215.836 285.359C216.467 285.377 222.871 310.607 222.871 320.411C222.871 330.215 219.721 338.164 215.836 338.164C211.951 338.164 208.801 330.216 208.801 320.412C208.801 310.608 215.201 285.342 215.836 285.359Z" fill="#42A0F0"/>
<path d="M214.764 314.78C215.792 315.137 216.104 317.358 215.462 319.741C214.82 322.124 213.466 323.766 212.439 323.41C211.411 323.054 211.098 320.833 211.74 318.449C212.383 316.066 213.736 314.424 214.764 314.78Z" fill="white"/>
<path d="M275.765 285.359C276.396 285.377 282.8 310.607 282.8 320.411C282.8 330.215 279.65 338.164 275.765 338.164C271.88 338.164 268.73 330.216 268.73 320.412C268.73 310.608 275.13 285.342 275.765 285.359Z" fill="#42A0F0"/>
<path d="M274.694 314.78C275.722 315.137 276.034 317.358 275.392 319.741C274.75 322.124 273.396 323.766 272.368 323.41C271.34 323.054 271.027 320.833 271.67 318.449C272.313 316.066 273.665 314.424 274.694 314.78Z" fill="white"/>
<path d="M339.222 285.359C339.853 285.377 346.257 310.607 346.257 320.411C346.257 330.215 343.107 338.164 339.222 338.164C335.337 338.164 332.188 330.216 332.188 320.412C332.188 310.608 338.587 285.342 339.222 285.359Z" fill="#42A0F0"/>
<path d="M338.151 314.78C339.179 315.137 339.491 317.358 338.849 319.741C338.207 322.124 336.853 323.766 335.825 323.41C334.797 323.054 334.484 320.833 335.127 318.449C335.77 316.066 337.122 314.424 338.151 314.78Z" fill="white"/>
<path d="M155.906 288.359C156.537 288.377 162.941 313.607 162.941 323.411C162.941 333.215 159.791 341.164 155.906 341.164C152.021 341.164 148.871 333.216 148.871 323.412C148.871 313.608 155.271 288.342 155.906 288.359Z" fill="#42A0F0"/>
<path d="M154.835 317.78C155.862 318.137 156.175 320.358 155.533 322.741C154.891 325.124 153.537 326.766 152.509 326.41C151.481 326.054 151.168 323.833 151.811 321.449C152.454 319.066 153.806 317.424 154.835 317.78Z" fill="white"/>
<path d="M99.4998 285.359C100.131 285.377 106.535 310.607 106.535 320.411C106.535 330.215 103.385 338.164 99.4998 338.164C95.6148 338.164 92.4648 330.216 92.4648 320.412C92.4648 310.608 98.8648 285.342 99.4998 285.359Z" fill="#42A0F0"/>
<path d="M98.4284 314.78C99.4559 315.137 99.7684 317.358 99.1265 319.741C98.4846 322.124 97.1304 323.766 96.1026 323.41C95.0748 323.054 94.7616 320.833 95.4045 318.449C96.0473 316.066 97.3996 314.424 98.4284 314.78Z" fill="white"/>
<path d="M107.267 6.72311C114.277 6.72135 121.269 7.42963 128.136 8.83711C141.389 11.5668 153.973 16.8888 165.163 24.4971C180.666 35.0048 193.052 49.4945 201.02 66.4436C208.988 83.3926 212.243 102.175 210.443 120.817C208.644 139.458 201.855 157.271 190.792 172.383C179.729 187.495 164.8 199.347 147.573 206.695C141.311 209.356 134.799 211.388 128.135 212.76C113.684 215.69 98.7744 215.508 84.3996 212.224C70.0247 208.941 56.5145 202.632 44.769 193.718C33.0235 184.804 23.3122 173.489 16.2822 160.528C9.25222 147.566 5.06481 133.256 3.99895 118.549C15.3304 121.201 27.1014 121.372 38.5049 119.049C48.738 116.953 58.4582 112.863 67.1109 107.012C79.9733 98.3288 90.0412 86.1017 96.095 71.8121C98.1405 66.9726 99.7017 61.9424 100.756 56.7951C103.003 45.7664 102.92 34.3898 100.512 23.3951C99.3006 17.8974 97.5093 12.5437 95.168 7.42412C99.184 6.95677 103.224 6.7227 107.267 6.72311V6.72311Z" fill="#713FFD"/>
<g filter="url(#filter1_f_217_10001)">
<path d="M177.338 38.8969C154.094 17.9674 123.643 13.8921 109.324 29.7945C95.0057 45.697 102.242 75.5551 125.486 96.4846C148.731 117.414 179.182 121.489 193.5 105.587C207.819 89.6845 200.583 59.8264 177.338 38.8969Z" fill="#A586FC"/>
</g>
<g filter="url(#filter2_d_217_10001)">
<path d="M306.343 278.001H114.911C96.3407 277.987 78.4956 270.79 65.1117 257.916C51.7278 245.043 43.8428 227.491 43.1073 208.935C42.3717 190.379 48.8428 172.258 61.1657 158.365C73.4887 144.473 90.7081 135.885 109.219 134.401C111.859 115.761 120.276 98.4181 133.287 84.8114C146.297 71.2047 163.246 62.0194 181.75 58.5478C200.253 55.0762 219.379 57.493 236.437 65.4581C253.495 73.4233 267.626 86.536 276.843 102.951C293.748 97.0995 312.013 96.4157 329.308 100.987C346.603 105.558 362.144 115.178 373.95 128.618C385.755 142.059 393.29 158.711 395.592 176.451C397.894 194.192 394.861 212.216 386.877 228.224C382.192 242.689 373.045 255.298 360.749 264.241C348.453 273.184 333.64 278.001 318.435 278.001H306.343Z" fill="url(#paint0_linear_217_10001)"/>
<path d="M318.437 277.001C326.157 277.001 333.748 275.769 340.998 273.338C348.009 270.987 354.59 267.556 360.56 263.141C366.462 258.777 371.635 253.549 375.936 247.602C380.29 241.582 383.652 234.959 385.928 227.917L385.951 227.845L385.985 227.777C389.011 221.73 391.341 215.332 392.911 208.763C394.526 202.002 395.345 195.017 395.345 188.001C395.345 181.962 394.737 175.927 393.537 170.064C392.368 164.35 390.623 158.73 388.352 153.359C386.121 148.086 383.361 142.999 380.146 138.242C376.962 133.529 373.306 129.097 369.278 125.069C365.25 121.041 360.819 117.385 356.106 114.201C351.348 110.986 346.261 108.226 340.988 105.995C335.617 103.724 329.997 101.979 324.283 100.81C318.42 99.6098 312.385 99.0015 306.345 99.0015C296.346 99.0015 286.531 100.647 277.172 103.893L276.383 104.167L275.973 103.438C268.357 89.8963 257.279 78.5236 243.937 70.5498C237.189 66.5172 229.94 63.401 222.391 61.2877C214.602 59.1074 206.512 58.002 198.345 58.002C187.361 58.002 176.638 59.979 166.475 63.878C156.657 67.6446 147.65 73.0857 139.705 80.05C131.806 86.9742 125.251 95.1441 120.221 104.333C115.069 113.747 111.701 123.909 110.211 134.537L110.1 135.332L109.299 135.395C100.341 136.096 91.7219 138.455 83.6818 142.405C75.8694 146.244 68.8932 151.435 62.947 157.836C50.7289 170.989 44 188.125 44 206.089C44 215.662 45.8748 224.949 49.5723 233.691C51.3495 237.892 53.5491 241.945 56.1102 245.736C58.6472 249.491 61.5607 253.022 64.7699 256.232C67.9791 259.441 71.5104 262.354 75.2655 264.891C79.0565 267.452 83.109 269.652 87.3106 271.429C96.0525 275.127 105.339 277.001 114.913 277.001H306.345H318.437ZM318.437 278.001H306.345H114.913C75.1966 278.001 43 245.805 43 206.089C43 168.288 72.1646 137.299 109.221 134.398C115.35 90.6593 152.917 57.002 198.345 57.002C232.048 57.002 261.422 75.5252 276.845 102.948C286.087 99.7426 296.012 98.0015 306.345 98.0015C356.051 98.0015 396.345 138.296 396.345 188.001C396.345 202.458 392.936 216.12 386.879 228.225C377.544 257.11 350.431 278.001 318.437 278.001Z" fill="white" fill-opacity="0.5"/>
</g>
</g>
<defs>
<filter id="filter0_f_217_10001" x="0" y="2.72266" width="400.344" height="342.441" filterUnits="userSpaceOnUse" color-interpolation-filters="sRGB">
<feFlood flood-opacity="0" result="BackgroundImageFix"/>
<feBlend mode="normal" in="SourceGraphic" in2="BackgroundImageFix" result="shape"/>
<feGaussianBlur stdDeviation="2" result="effect1_foregroundBlur_217_10001"/>
</filter>
<filter id="filter1_f_217_10001" x="81.9727" y="0.09375" width="138.879" height="135.193" filterUnits="userSpaceOnUse" color-interpolation-filters="sRGB">
<feFlood flood-opacity="0" result="BackgroundImageFix"/>
<feBlend mode="normal" in="SourceGraphic" in2="BackgroundImageFix" result="shape"/>
<feGaussianBlur stdDeviation="10" result="effect1_foregroundBlur_217_10001"/>
</filter>
<filter id="filter2_d_217_10001" x="23" y="29.002" width="413.344" height="281" filterUnits="userSpaceOnUse" color-interpolation-filters="sRGB">
<feFlood flood-opacity="0" result="BackgroundImageFix"/>
<feColorMatrix in="SourceAlpha" type="matrix" values="0 0 0 0 0 0 0 0 0 0 0 0 0 0 0 0 0 0 127 0" result="hardAlpha"/>
<feOffset dx="10" dy="2"/>
<feGaussianBlur stdDeviation="15"/>
<feColorMatrix type="matrix" values="0 0 0 0 0.501961 0 0 0 0 0.501961 0 0 0 0 0.501961 0 0 0 0.302 0"/>
<feBlend mode="normal" in2="BackgroundImageFix" result="effect1_dropShadow_217_10001"/>
<feBlend mode="normal" in="SourceGraphic" in2="effect1_dropShadow_217_10001" result="shape"/>
</filter>
<linearGradient id="paint0_linear_217_10001" x1="219.696" y1="57.0039" x2="322.339" y2="305.168" gradientUnits="userSpaceOnUse">
<stop stop-color="white" stop-opacity="0.604"/>
<stop offset="1" stop-color="white" stop-opacity="0.2"/>
</linearGradient>
</defs>
</svg>
