<svg width="432" height="311" viewBox="0 0 432 311" fill="none" xmlns="http://www.w3.org/2000/svg">
<g filter="url(#filter0_f_215_8013)">
<path d="M108.148 214.763C162.548 214.763 206.648 170.439 206.648 115.763C206.648 61.0865 162.548 16.7627 108.148 16.7627C53.7484 16.7627 9.64844 61.0865 9.64844 115.763C9.64844 170.439 53.7484 214.763 108.148 214.763Z" fill="#FA9E42"/>
<g filter="url(#filter1_f_215_8013)">
<path d="M101.03 101.684C133.767 84.2962 152.077 54.7094 141.928 35.6002C131.778 16.4909 97.0115 15.0954 64.2749 32.4833C31.5383 49.8712 13.228 79.4579 23.3778 98.5672C33.5275 117.676 68.2938 119.072 101.03 101.684Z" fill="#F8E36F"/>
</g>
<g filter="url(#filter2_d_215_8013)">
<path d="M301.992 278.763H110.56C91.9891 278.749 74.1441 271.552 60.7602 258.678C47.3763 245.804 39.4912 228.252 38.7557 209.696C38.0202 191.141 44.4912 173.02 56.8142 159.127C69.1371 145.234 86.3565 136.647 104.868 135.163C107.507 116.523 115.925 99.1798 128.935 85.5731C141.946 71.9664 158.895 62.7811 177.398 59.3095C195.901 55.8379 215.027 58.2547 232.085 66.2199C249.143 74.185 263.275 87.2977 272.492 103.713C289.397 97.8611 307.662 97.1774 324.957 101.749C342.253 106.321 357.794 115.941 369.6 129.382C381.405 142.823 388.939 159.476 391.241 177.216C393.543 194.957 390.508 212.981 382.524 228.99C377.838 243.454 368.691 256.061 356.395 265.003C344.1 273.945 329.287 278.762 314.084 278.763H301.992Z" fill="url(#paint0_linear_215_8013)"/>
<path d="M314.085 277.762C321.805 277.762 329.395 276.53 336.644 274.099C343.654 271.748 350.236 268.317 356.206 263.903C362.107 259.539 367.28 254.311 371.581 248.365C375.936 242.345 379.298 235.723 381.574 228.682L381.597 228.61L381.631 228.542C384.658 222.494 386.989 216.096 388.559 209.526C390.175 202.765 390.994 195.78 390.994 188.762C390.994 182.723 390.385 176.688 389.186 170.825C388.016 165.111 386.272 159.491 384 154.12C381.77 148.846 379.009 143.76 375.795 139.002C372.611 134.289 368.954 129.858 364.926 125.83C360.898 121.802 356.467 118.146 351.754 114.962C346.996 111.747 341.91 108.986 336.636 106.756C331.265 104.484 325.645 102.74 319.931 101.57C314.068 100.371 308.033 99.7622 301.994 99.7622C291.994 99.7622 282.179 101.408 272.821 104.653L272.031 104.927L271.621 104.199C264.006 90.6569 252.928 79.2843 239.585 71.3105C232.838 67.2779 225.589 64.1617 218.039 62.0484C210.251 59.8681 202.161 58.7627 193.994 58.7627C183.009 58.7627 172.286 60.7397 162.123 64.6387C152.305 68.4054 143.299 73.8464 135.354 80.8107C127.454 87.7349 120.899 95.9049 115.87 105.094C110.717 114.508 107.349 124.67 105.86 135.298L105.748 136.093L104.947 136.156C95.9892 136.857 87.3703 139.216 79.3302 143.166C71.5178 147.004 64.5416 152.196 58.5954 158.597C46.3773 171.75 39.6484 188.886 39.6484 206.85C39.6484 216.423 41.5232 225.71 45.2207 234.452C46.9979 238.653 49.1976 242.706 51.7587 246.497C54.2956 250.252 57.2092 253.783 60.4183 256.992C63.6275 260.202 67.1588 263.115 70.9139 265.652C74.7049 268.213 78.7574 270.413 82.9591 272.19C91.7009 275.887 100.988 277.762 110.561 277.762H301.994H314.085ZM314.085 278.762H301.994H110.561C70.845 278.762 38.6484 246.566 38.6484 206.85C38.6484 169.048 67.8131 138.059 104.869 135.159C110.999 91.4201 148.565 57.7627 193.994 57.7627C227.696 57.7627 257.071 76.2858 272.493 103.709C281.735 100.503 291.661 98.7622 301.994 98.7622C351.699 98.7622 391.994 139.057 391.994 188.762C391.994 203.221 388.585 216.883 382.525 228.989C373.188 257.872 346.076 278.762 314.085 278.762Z" fill="white" fill-opacity="0.5"/>
</g>
</g>
<defs>
<filter id="filter0_f_215_8013" x="5.64844" y="12.7627" width="390.344" height="270" filterUnits="userSpaceOnUse" color-interpolation-filters="sRGB">
<feFlood flood-opacity="0" result="BackgroundImageFix"/>
<feBlend mode="normal" in="SourceGraphic" in2="BackgroundImageFix" result="shape"/>
<feGaussianBlur stdDeviation="2" result="effect1_foregroundBlur_215_8013"/>
</filter>
<filter id="filter1_f_215_8013" x="0.578125" y="0.302734" width="164.148" height="133.562" filterUnits="userSpaceOnUse" color-interpolation-filters="sRGB">
<feFlood flood-opacity="0" result="BackgroundImageFix"/>
<feBlend mode="normal" in="SourceGraphic" in2="BackgroundImageFix" result="shape"/>
<feGaussianBlur stdDeviation="10" result="effect1_foregroundBlur_215_8013"/>
</filter>
<filter id="filter2_d_215_8013" x="18.6484" y="29.7627" width="413.344" height="281" filterUnits="userSpaceOnUse" color-interpolation-filters="sRGB">
<feFlood flood-opacity="0" result="BackgroundImageFix"/>
<feColorMatrix in="SourceAlpha" type="matrix" values="0 0 0 0 0 0 0 0 0 0 0 0 0 0 0 0 0 0 127 0" result="hardAlpha"/>
<feOffset dx="10" dy="2"/>
<feGaussianBlur stdDeviation="15"/>
<feColorMatrix type="matrix" values="0 0 0 0 0.501961 0 0 0 0 0.501961 0 0 0 0 0.501961 0 0 0 0.302 0"/>
<feBlend mode="normal" in2="BackgroundImageFix" result="effect1_dropShadow_215_8013"/>
<feBlend mode="normal" in="SourceGraphic" in2="effect1_dropShadow_215_8013" result="shape"/>
</filter>
<linearGradient id="paint0_linear_215_8013" x1="215.344" y1="57.7656" x2="317.987" y2="305.929" gradientUnits="userSpaceOnUse">
<stop stop-color="white" stop-opacity="0.604"/>
<stop offset="1" stop-color="white" stop-opacity="0.2"/>
</linearGradient>
</defs>
</svg>
