<svg width="429" height="377" viewBox="0 0 429 377" fill="none" xmlns="http://www.w3.org/2000/svg">
<path d="M179.091 203.426C179.807 203.444 187.073 228.674 187.073 238.478C187.073 248.282 183.499 256.231 179.091 256.231C174.683 256.231 171.109 248.283 171.109 238.479C171.109 228.675 178.375 203.409 179.091 203.426Z" fill="#42A0F0"/>
<path d="M175.235 241.478C176.401 241.835 177.937 240.192 178.666 237.809C179.394 235.426 179.039 233.205 177.873 232.849C176.707 232.492 175.171 234.135 174.443 236.518C173.714 238.901 174.069 241.122 175.235 241.478Z" fill="white"/>
<path d="M238.517 203.426C239.233 203.444 246.499 228.674 246.499 238.478C246.499 248.282 242.925 256.231 238.517 256.231C234.109 256.231 230.535 248.283 230.535 238.479C230.535 228.675 237.801 203.409 238.517 203.426Z" fill="#42A0F0"/>
<path d="M234.661 241.478C235.827 241.835 237.363 240.192 238.091 237.809C238.82 235.426 238.465 233.205 237.299 232.849C236.133 232.492 234.597 234.135 233.868 236.518C233.14 238.901 233.494 241.122 234.661 241.478Z" fill="white"/>
<path d="M293.404 200.426C294.12 200.444 301.386 225.674 301.386 235.478C301.386 245.282 297.812 253.231 293.404 253.231C288.996 253.231 285.422 245.283 285.422 235.479C285.422 225.675 292.688 200.409 293.404 200.426Z" fill="#42A0F0"/>
<path d="M289.547 238.478C290.714 238.835 292.25 237.192 292.978 234.809C293.707 232.426 293.352 230.205 292.186 229.849C291.02 229.492 289.484 231.135 288.755 233.518C288.026 235.901 288.381 238.122 289.547 238.478Z" fill="white"/>
<path d="M207.056 270.426C207.772 270.444 215.038 295.674 215.038 305.478C215.038 315.282 211.464 323.231 207.056 323.231C202.648 323.231 199.074 315.283 199.074 305.479C199.074 295.675 206.34 270.409 207.056 270.426Z" fill="#42A0F0"/>
<path d="M203.2 308.478C204.366 308.835 205.902 307.192 206.63 304.809C207.359 302.426 207.004 300.205 205.838 299.849C204.672 299.492 203.136 301.135 202.407 303.518C201.679 305.901 202.034 308.122 203.2 308.478Z" fill="white"/>
<path d="M266.482 270.426C267.198 270.444 274.464 295.674 274.464 305.478C274.464 315.282 270.89 323.231 266.482 323.231C262.074 323.231 258.5 315.283 258.5 305.479C258.5 295.675 265.766 270.409 266.482 270.426Z" fill="#42A0F0"/>
<path d="M262.626 308.478C263.792 308.835 265.328 307.192 266.056 304.809C266.785 302.426 266.43 300.205 265.264 299.849C264.098 299.492 262.562 301.135 261.833 303.518C261.105 305.901 261.459 308.122 262.626 308.478Z" fill="white"/>
<path d="M329.404 270.426C330.12 270.444 337.386 295.674 337.386 305.478C337.386 315.282 333.812 323.231 329.404 323.231C324.996 323.231 321.422 315.283 321.422 305.479C321.422 295.675 328.688 270.409 329.404 270.426Z" fill="#42A0F0"/>
<path d="M325.547 308.478C326.714 308.835 328.25 307.192 328.978 304.809C329.707 302.426 329.352 300.205 328.186 299.849C327.02 299.492 325.484 301.135 324.755 303.518C324.026 305.901 324.381 308.122 325.547 308.478Z" fill="white"/>
<path d="M179.091 323.426C179.807 323.444 187.073 348.674 187.073 358.478C187.073 368.282 183.499 376.231 179.091 376.231C174.683 376.231 171.109 368.283 171.109 358.479C171.109 348.675 178.375 323.409 179.091 323.426Z" fill="#42A0F0"/>
<path d="M175.235 361.478C176.401 361.835 177.937 360.192 178.666 357.809C179.394 355.426 179.039 353.205 177.873 352.849C176.707 352.492 175.171 354.135 174.443 356.518C173.714 358.901 174.069 361.122 175.235 361.478Z" fill="white"/>
<path d="M238.517 323.426C239.233 323.444 246.499 348.674 246.499 358.478C246.499 368.282 242.925 376.231 238.517 376.231C234.109 376.231 230.535 368.283 230.535 358.479C230.535 348.675 237.801 323.409 238.517 323.426Z" fill="#42A0F0"/>
<path d="M234.661 361.478C235.827 361.835 237.363 360.192 238.091 357.809C238.82 355.426 238.465 353.205 237.299 352.849C236.133 352.492 234.597 354.135 233.868 356.518C233.14 358.901 233.494 361.122 234.661 361.478Z" fill="white"/>
<path d="M293.404 323.426C294.12 323.444 301.386 348.674 301.386 358.478C301.386 368.282 297.812 376.231 293.404 376.231C288.996 376.231 285.422 368.283 285.422 358.479C285.422 348.675 292.688 323.409 293.404 323.426Z" fill="#42A0F0"/>
<path d="M289.547 361.478C290.714 361.835 292.25 360.192 292.978 357.809C293.707 355.426 293.352 353.205 292.186 352.849C291.02 352.492 289.484 354.135 288.755 356.518C288.026 358.901 288.381 361.122 289.547 361.478Z" fill="white"/>
<path d="M107.249 238.551H153.895L127.08 277.929L158.433 278.523L92.6249 356.411L108.57 297.027H79.3789L107.249 238.551Z" fill="url(#paint0_linear_217_10151)"/>
<path d="M96.5442 5.34885C103.097 5.34746 109.634 6.00983 116.053 7.32584C128.443 9.87786 140.207 14.8532 150.668 21.9658C165.161 31.7891 176.741 45.3352 184.189 61.1803C191.638 77.0253 194.681 94.5843 192.998 112.012C191.315 129.439 184.969 146.092 174.626 160.219C164.283 174.346 150.326 185.426 134.221 192.295C128.367 194.782 122.279 196.681 116.049 197.964C102.54 200.704 88.601 200.534 75.1622 197.465C61.7233 194.396 49.0929 188.498 38.1122 180.165C27.1316 171.831 18.053 161.254 11.4813 149.136C4.90956 137.019 0.995615 123.64 0.000213623 109.891C5.63343 111.211 11.4003 111.877 17.1862 111.875C32.0885 111.899 46.655 107.449 59.0002 99.1018C71.025 90.9866 80.4385 79.5584 86.1002 66.2018C89.9978 56.9924 91.9967 47.0911 91.9772 37.0908C91.978 31.6601 91.3909 26.2452 90.2262 20.9408C89.0925 15.801 87.4164 10.7959 85.2262 6.00984C88.9829 5.57077 92.7619 5.35007 96.5442 5.34885V5.34885Z" fill="#713FFD"/>
<path d="M162.047 35.4279C140.317 15.862 111.849 12.0525 98.4636 26.919C85.0778 41.7855 91.8421 69.6984 113.572 89.2643C135.302 108.83 163.769 112.64 177.155 97.7732C190.541 82.9067 183.777 54.9938 162.047 35.4279Z" fill="#A586FC"/>
<g filter="url(#filter0_d_217_10151)">
<path d="M298.062 265.068H106.63C88.0594 265.054 70.2144 257.856 56.8305 244.983C43.4466 232.109 35.5615 214.557 34.826 196.001C34.0905 177.445 40.5616 159.324 52.8845 145.432C65.2074 131.539 82.4268 122.952 100.938 121.468C103.578 102.828 111.995 85.4845 125.006 71.8778C138.016 58.2711 154.965 49.0858 173.468 45.6142C191.972 42.1426 211.097 44.5594 228.155 52.5245C245.213 60.4897 259.345 73.6024 268.562 90.0178C285.467 84.1659 303.731 83.4821 321.026 88.0535C338.322 92.6249 353.863 102.244 365.668 115.685C377.474 129.125 385.008 145.778 387.311 163.518C389.613 181.258 386.579 199.282 378.596 215.291C373.911 229.756 364.764 242.364 352.468 251.307C340.172 260.25 325.358 265.067 310.154 265.068H298.062Z" fill="url(#paint1_linear_217_10151)"/>
<path d="M310.156 264.068C317.876 264.068 325.466 262.835 332.716 260.404C339.727 258.053 346.309 254.623 352.279 250.207C358.18 245.843 363.353 240.615 367.654 234.669C372.009 228.648 375.371 222.025 377.646 214.983L377.67 214.911L377.704 214.843C380.73 208.796 383.06 202.399 384.63 195.829C386.245 189.068 387.064 182.083 387.064 175.068C387.064 169.029 386.456 162.994 385.256 157.13C384.087 151.416 382.342 145.796 380.071 140.426C377.84 135.152 375.079 130.066 371.865 125.308C368.681 120.595 365.024 116.163 360.997 112.136C356.969 108.108 352.537 104.451 347.824 101.267C343.066 98.0528 337.98 95.292 332.707 93.0616C327.336 90.7899 321.716 89.0453 316.002 87.876C310.139 86.6762 304.103 86.0679 298.064 86.0679C288.065 86.0679 278.249 87.7135 268.891 90.9591L268.101 91.233L267.692 90.5045C260.076 76.9627 248.998 65.59 235.656 57.6162C228.908 53.5836 221.659 50.4674 214.109 48.3541C206.321 46.1738 198.231 45.0684 190.064 45.0684C179.079 45.0684 168.357 47.0454 158.193 50.9444C148.375 54.711 139.369 60.1521 131.424 67.1164C123.525 74.0406 116.969 82.2105 111.94 91.3992C106.787 100.813 103.419 110.976 101.93 121.603L101.819 122.399L101.018 122.461C92.0595 123.163 83.4407 125.521 75.4005 129.472C67.5881 133.31 60.6119 138.502 54.6658 144.903C42.4476 158.055 35.7188 175.192 35.7188 193.155C35.7188 202.729 37.5935 212.015 41.291 220.757C43.0682 224.959 45.2679 229.011 47.829 232.802C50.3659 236.558 53.2795 240.089 56.4887 243.298C59.6978 246.507 63.2291 249.421 66.9843 251.958C70.7752 254.519 74.8278 256.718 79.0294 258.496C87.7712 262.193 97.0579 264.068 106.631 264.068H298.064H310.156ZM310.156 265.068H298.064H106.631C66.9153 265.068 34.7188 232.871 34.7188 193.155C34.7188 155.354 63.8834 124.365 100.94 121.464C107.069 77.7257 144.636 44.0684 190.064 44.0684C223.766 44.0684 253.141 62.5916 268.563 90.0144C277.806 86.809 287.731 85.0679 298.064 85.0679C347.77 85.0679 388.064 125.363 388.064 175.068C388.064 189.524 384.655 203.187 378.598 215.291C369.263 244.176 342.149 265.068 310.156 265.068Z" fill="white" fill-opacity="0.5"/>
</g>
<defs>
<filter id="filter0_d_217_10151" x="14.7188" y="16.0684" width="413.344" height="281" filterUnits="userSpaceOnUse" color-interpolation-filters="sRGB">
<feFlood flood-opacity="0" result="BackgroundImageFix"/>
<feColorMatrix in="SourceAlpha" type="matrix" values="0 0 0 0 0 0 0 0 0 0 0 0 0 0 0 0 0 0 127 0" result="hardAlpha"/>
<feOffset dx="10" dy="2"/>
<feGaussianBlur stdDeviation="15"/>
<feColorMatrix type="matrix" values="0 0 0 0 0.501961 0 0 0 0 0.501961 0 0 0 0 0.501961 0 0 0 0.302 0"/>
<feBlend mode="normal" in2="BackgroundImageFix" result="effect1_dropShadow_217_10151"/>
<feBlend mode="normal" in="SourceGraphic" in2="effect1_dropShadow_217_10151" result="shape"/>
</filter>
<linearGradient id="paint0_linear_217_10151" x1="111.633" y1="297.481" x2="74.7064" y2="283.943" gradientUnits="userSpaceOnUse">
<stop stop-color="#FFD100"/>
<stop offset="1" stop-color="#FFF0AA"/>
</linearGradient>
<linearGradient id="paint1_linear_217_10151" x1="211.415" y1="44.0703" x2="314.057" y2="292.234" gradientUnits="userSpaceOnUse">
<stop stop-color="white" stop-opacity="0.604"/>
<stop offset="1" stop-color="white" stop-opacity="0.2"/>
</linearGradient>
</defs>
</svg>
