<svg width="437" height="354" viewBox="0 0 437 354" fill="none" xmlns="http://www.w3.org/2000/svg">
<g filter="url(#filter0_f_217_10190)">
<path d="M313.172 294.883V347.501" stroke="#42A0F0" stroke-width="4" stroke-linecap="round"/>
<path d="M313.066 307.745L322.128 298.391" stroke="#42A0F0" stroke-width="4" stroke-linecap="round"/>
<path d="M313.065 307.745L303.711 298.391" stroke="#42A0F0" stroke-width="4" stroke-linecap="round"/>
<path d="M313.066 335.809L322.128 345.163" stroke="#42A0F0" stroke-width="4" stroke-linecap="round"/>
<path d="M313.065 335.809L303.711 345.163" stroke="#42A0F0" stroke-width="4" stroke-linecap="round"/>
<path d="M335.832 308.256L290.264 334.565" stroke="#42A0F0" stroke-width="4" stroke-linecap="round"/>
<path d="M324.637 314.595L337.269 317.766" stroke="#42A0F0" stroke-width="4" stroke-linecap="round"/>
<path d="M324.639 314.594L328.062 301.816" stroke="#42A0F0" stroke-width="4" stroke-linecap="round"/>
<path d="M300.336 328.627L296.766 341.152" stroke="#42A0F0" stroke-width="4" stroke-linecap="round"/>
<path d="M300.337 328.626L287.559 325.202" stroke="#42A0F0" stroke-width="4" stroke-linecap="round"/>
<path d="M335.578 334.564L290.01 308.255" stroke="#42A0F0" stroke-width="4" stroke-linecap="round"/>
<path d="M324.493 328.042L328.063 340.567" stroke="#42A0F0" stroke-width="4" stroke-linecap="round"/>
<path d="M324.492 328.041L337.27 324.617" stroke="#42A0F0" stroke-width="4" stroke-linecap="round"/>
<path d="M300.191 314.01L287.56 317.181" stroke="#42A0F0" stroke-width="4" stroke-linecap="round"/>
<path d="M300.19 314.009L296.766 301.231" stroke="#42A0F0" stroke-width="4" stroke-linecap="round"/>
<path d="M220.008 294.883V347.501" stroke="#42A0F0" stroke-width="4" stroke-linecap="round"/>
<path d="M219.902 307.745L228.964 298.391" stroke="#42A0F0" stroke-width="4" stroke-linecap="round"/>
<path d="M219.901 307.745L210.547 298.391" stroke="#42A0F0" stroke-width="4" stroke-linecap="round"/>
<path d="M219.902 335.809L228.964 345.163" stroke="#42A0F0" stroke-width="4" stroke-linecap="round"/>
<path d="M219.901 335.809L210.547 345.163" stroke="#42A0F0" stroke-width="4" stroke-linecap="round"/>
<path d="M242.668 308.256L197.099 334.565" stroke="#42A0F0" stroke-width="4" stroke-linecap="round"/>
<path d="M231.473 314.595L244.105 317.766" stroke="#42A0F0" stroke-width="4" stroke-linecap="round"/>
<path d="M231.475 314.594L234.898 301.816" stroke="#42A0F0" stroke-width="4" stroke-linecap="round"/>
<path d="M207.172 328.627L203.602 341.152" stroke="#42A0F0" stroke-width="4" stroke-linecap="round"/>
<path d="M207.173 328.626L194.395 325.202" stroke="#42A0F0" stroke-width="4" stroke-linecap="round"/>
<path d="M242.414 334.564L196.846 308.255" stroke="#42A0F0" stroke-width="4" stroke-linecap="round"/>
<path d="M231.329 328.042L234.899 340.567" stroke="#42A0F0" stroke-width="4" stroke-linecap="round"/>
<path d="M231.328 328.041L244.105 324.617" stroke="#42A0F0" stroke-width="4" stroke-linecap="round"/>
<path d="M207.027 314.01L194.396 317.181" stroke="#42A0F0" stroke-width="4" stroke-linecap="round"/>
<path d="M207.026 314.009L203.602 301.231" stroke="#42A0F0" stroke-width="4" stroke-linecap="round"/>
<path d="M127.008 294.883V347.501" stroke="#42A0F0" stroke-width="4" stroke-linecap="round"/>
<path d="M126.902 307.745L135.964 298.391" stroke="#42A0F0" stroke-width="4" stroke-linecap="round"/>
<path d="M126.901 307.745L117.547 298.391" stroke="#42A0F0" stroke-width="4" stroke-linecap="round"/>
<path d="M126.902 335.809L135.964 345.163" stroke="#42A0F0" stroke-width="4" stroke-linecap="round"/>
<path d="M126.901 335.809L117.547 345.163" stroke="#42A0F0" stroke-width="4" stroke-linecap="round"/>
<path d="M149.668 308.256L104.099 334.565" stroke="#42A0F0" stroke-width="4" stroke-linecap="round"/>
<path d="M138.473 314.595L151.105 317.766" stroke="#42A0F0" stroke-width="4" stroke-linecap="round"/>
<path d="M138.475 314.594L141.898 301.816" stroke="#42A0F0" stroke-width="4" stroke-linecap="round"/>
<path d="M114.172 328.627L110.602 341.152" stroke="#42A0F0" stroke-width="4" stroke-linecap="round"/>
<path d="M114.173 328.626L101.395 325.202" stroke="#42A0F0" stroke-width="4" stroke-linecap="round"/>
<path d="M149.414 334.564L103.846 308.255" stroke="#42A0F0" stroke-width="4" stroke-linecap="round"/>
<path d="M138.329 328.042L141.899 340.567" stroke="#42A0F0" stroke-width="4" stroke-linecap="round"/>
<path d="M138.328 328.041L151.105 324.617" stroke="#42A0F0" stroke-width="4" stroke-linecap="round"/>
<path d="M114.027 314.01L101.396 317.181" stroke="#42A0F0" stroke-width="4" stroke-linecap="round"/>
<path d="M114.026 314.009L110.602 301.231" stroke="#42A0F0" stroke-width="4" stroke-linecap="round"/>
<path d="M172.008 215.883V268.501" stroke="#42A0F0" stroke-width="4" stroke-linecap="round"/>
<path d="M171.902 228.745L180.964 219.391" stroke="#42A0F0" stroke-width="4" stroke-linecap="round"/>
<path d="M171.901 228.745L162.547 219.391" stroke="#42A0F0" stroke-width="4" stroke-linecap="round"/>
<path d="M171.902 256.809L180.964 266.163" stroke="#42A0F0" stroke-width="4" stroke-linecap="round"/>
<path d="M171.901 256.809L162.547 266.163" stroke="#42A0F0" stroke-width="4" stroke-linecap="round"/>
<path d="M194.668 229.256L149.099 255.565" stroke="#42A0F0" stroke-width="4" stroke-linecap="round"/>
<path d="M183.473 235.595L196.105 238.766" stroke="#42A0F0" stroke-width="4" stroke-linecap="round"/>
<path d="M183.475 235.594L186.898 222.816" stroke="#42A0F0" stroke-width="4" stroke-linecap="round"/>
<path d="M159.172 249.627L155.602 262.152" stroke="#42A0F0" stroke-width="4" stroke-linecap="round"/>
<path d="M159.173 249.626L146.395 246.202" stroke="#42A0F0" stroke-width="4" stroke-linecap="round"/>
<path d="M194.414 255.564L148.846 229.255" stroke="#42A0F0" stroke-width="4" stroke-linecap="round"/>
<path d="M183.329 249.042L186.899 261.567" stroke="#42A0F0" stroke-width="4" stroke-linecap="round"/>
<path d="M183.328 249.041L196.105 245.617" stroke="#42A0F0" stroke-width="4" stroke-linecap="round"/>
<path d="M159.027 235.01L146.396 238.181" stroke="#42A0F0" stroke-width="4" stroke-linecap="round"/>
<path d="M159.026 235.009L155.602 222.231" stroke="#42A0F0" stroke-width="4" stroke-linecap="round"/>
<path d="M275.008 215.883V268.501" stroke="#42A0F0" stroke-width="4" stroke-linecap="round"/>
<path d="M274.902 228.745L283.964 219.391" stroke="#42A0F0" stroke-width="4" stroke-linecap="round"/>
<path d="M274.901 228.745L265.547 219.391" stroke="#42A0F0" stroke-width="4" stroke-linecap="round"/>
<path d="M274.902 256.809L283.964 266.163" stroke="#42A0F0" stroke-width="4" stroke-linecap="round"/>
<path d="M274.901 256.809L265.547 266.163" stroke="#42A0F0" stroke-width="4" stroke-linecap="round"/>
<path d="M297.668 229.256L252.099 255.565" stroke="#42A0F0" stroke-width="4" stroke-linecap="round"/>
<path d="M286.473 235.595L299.105 238.766" stroke="#42A0F0" stroke-width="4" stroke-linecap="round"/>
<path d="M286.475 235.594L289.898 222.816" stroke="#42A0F0" stroke-width="4" stroke-linecap="round"/>
<path d="M262.172 249.627L258.602 262.152" stroke="#42A0F0" stroke-width="4" stroke-linecap="round"/>
<path d="M262.173 249.626L249.395 246.202" stroke="#42A0F0" stroke-width="4" stroke-linecap="round"/>
<path d="M297.414 255.564L251.846 229.255" stroke="#42A0F0" stroke-width="4" stroke-linecap="round"/>
<path d="M286.329 249.042L289.899 261.567" stroke="#42A0F0" stroke-width="4" stroke-linecap="round"/>
<path d="M286.328 249.041L299.105 245.617" stroke="#42A0F0" stroke-width="4" stroke-linecap="round"/>
<path d="M262.027 235.01L249.396 238.181" stroke="#42A0F0" stroke-width="4" stroke-linecap="round"/>
<path d="M262.026 235.009L258.602 222.231" stroke="#42A0F0" stroke-width="4" stroke-linecap="round"/>
<path d="M107.267 6.72311C114.277 6.72135 121.269 7.42963 128.136 8.83711C141.389 11.5668 153.973 16.8888 165.163 24.4971C180.666 35.0048 193.052 49.4945 201.02 66.4436C208.988 83.3926 212.243 102.175 210.443 120.817C208.644 139.458 201.855 157.271 190.792 172.383C179.729 187.495 164.8 199.347 147.573 206.695C141.311 209.356 134.799 211.388 128.135 212.76C113.684 215.69 98.7744 215.508 84.3996 212.224C70.0247 208.941 56.5145 202.632 44.769 193.718C33.0235 184.804 23.3122 173.489 16.2822 160.528C9.25222 147.566 5.06481 133.256 3.99895 118.549C15.3304 121.201 27.1014 121.372 38.5049 119.049C48.738 116.953 58.4582 112.863 67.1109 107.012C79.9733 98.3288 90.0412 86.1017 96.095 71.8121C98.1405 66.9726 99.7017 61.9424 100.756 56.7951C103.003 45.7664 102.92 34.3898 100.512 23.3951C99.3006 17.8974 97.5093 12.5437 95.168 7.42412C99.184 6.95677 103.224 6.7227 107.267 6.72311V6.72311Z" fill="#713FFD"/>
<g filter="url(#filter1_f_217_10190)">
<path d="M177.338 38.8969C154.094 17.9674 123.643 13.8921 109.324 29.7945C95.0057 45.697 102.242 75.5551 125.486 96.4846C148.731 117.414 179.182 121.489 193.5 105.587C207.819 89.6845 200.583 59.8264 177.338 38.8969Z" fill="#A586FC"/>
</g>
<g filter="url(#filter2_d_217_10190)">
<path d="M306.343 282.001H114.911C96.3407 281.987 78.4956 274.79 65.1117 261.916C51.7278 249.043 43.8428 231.491 43.1073 212.935C42.3717 194.379 48.8428 176.258 61.1657 162.365C73.4887 148.473 90.7081 139.885 109.219 138.401C111.859 119.761 120.276 102.418 133.287 88.8114C146.297 75.2047 163.246 66.0194 181.75 62.5478C200.253 59.0762 219.379 61.493 236.437 69.4581C253.495 77.4233 267.626 90.536 276.843 106.951C293.748 101.1 312.013 100.416 329.308 104.987C346.603 109.558 362.144 119.178 373.95 132.618C385.755 146.059 393.29 162.711 395.592 180.451C397.894 198.192 394.861 216.216 386.877 232.224C382.192 246.689 373.045 259.298 360.749 268.241C348.453 277.184 333.64 282.001 318.435 282.001H306.343Z" fill="url(#paint0_linear_217_10190)"/>
<path d="M318.437 281.001C326.157 281.001 333.748 279.769 340.998 277.338C348.009 274.987 354.59 271.556 360.56 267.141C366.462 262.777 371.635 257.549 375.936 251.602C380.29 245.582 383.652 238.959 385.928 231.917L385.951 231.845L385.985 231.777C389.011 225.73 391.341 219.332 392.911 212.763C394.526 206.002 395.345 199.017 395.345 192.001C395.345 185.962 394.737 179.927 393.537 174.064C392.368 168.35 390.623 162.73 388.352 157.359C386.121 152.086 383.361 146.999 380.146 142.242C376.962 137.529 373.306 133.097 369.278 129.069C365.25 125.041 360.819 121.385 356.106 118.201C351.348 114.986 346.261 112.226 340.988 109.995C335.617 107.724 329.997 105.979 324.283 104.81C318.42 103.61 312.385 103.001 306.345 103.001C296.346 103.001 286.531 104.647 277.172 107.893L276.383 108.167L275.973 107.438C268.357 93.8963 257.279 82.5236 243.937 74.5498C237.189 70.5172 229.94 67.401 222.391 65.2877C214.602 63.1074 206.512 62.002 198.345 62.002C187.361 62.002 176.638 63.979 166.475 67.878C156.657 71.6446 147.65 77.0857 139.705 84.05C131.806 90.9742 125.251 99.1441 120.221 108.333C115.069 117.747 111.701 127.909 110.211 138.537L110.1 139.332L109.299 139.395C100.341 140.096 91.7219 142.455 83.6818 146.405C75.8694 150.244 68.8932 155.435 62.947 161.836C50.7289 174.989 44 192.125 44 210.089C44 219.662 45.8748 228.949 49.5723 237.691C51.3495 241.892 53.5491 245.945 56.1102 249.736C58.6472 253.491 61.5607 257.022 64.7699 260.232C67.9791 263.441 71.5104 266.354 75.2655 268.891C79.0565 271.452 83.109 273.652 87.3106 275.429C96.0525 279.127 105.339 281.001 114.913 281.001H306.345H318.437ZM318.437 282.001H306.345H114.913C75.1966 282.001 43 249.805 43 210.089C43 172.288 72.1646 141.299 109.221 138.398C115.35 94.6593 152.917 61.002 198.345 61.002C232.048 61.002 261.422 79.5252 276.845 106.948C286.087 103.743 296.012 102.001 306.345 102.001C356.051 102.001 396.345 142.296 396.345 192.001C396.345 206.458 392.936 220.12 386.879 232.225C377.544 261.11 350.431 282.001 318.437 282.001Z" fill="white" fill-opacity="0.5"/>
</g>
</g>
<defs>
<filter id="filter0_f_217_10190" x="0" y="2.72266" width="400.344" height="350.777" filterUnits="userSpaceOnUse" color-interpolation-filters="sRGB">
<feFlood flood-opacity="0" result="BackgroundImageFix"/>
<feBlend mode="normal" in="SourceGraphic" in2="BackgroundImageFix" result="shape"/>
<feGaussianBlur stdDeviation="2" result="effect1_foregroundBlur_217_10190"/>
</filter>
<filter id="filter1_f_217_10190" x="81.9727" y="0.09375" width="138.879" height="135.193" filterUnits="userSpaceOnUse" color-interpolation-filters="sRGB">
<feFlood flood-opacity="0" result="BackgroundImageFix"/>
<feBlend mode="normal" in="SourceGraphic" in2="BackgroundImageFix" result="shape"/>
<feGaussianBlur stdDeviation="10" result="effect1_foregroundBlur_217_10190"/>
</filter>
<filter id="filter2_d_217_10190" x="23" y="33.002" width="413.344" height="281" filterUnits="userSpaceOnUse" color-interpolation-filters="sRGB">
<feFlood flood-opacity="0" result="BackgroundImageFix"/>
<feColorMatrix in="SourceAlpha" type="matrix" values="0 0 0 0 0 0 0 0 0 0 0 0 0 0 0 0 0 0 127 0" result="hardAlpha"/>
<feOffset dx="10" dy="2"/>
<feGaussianBlur stdDeviation="15"/>
<feColorMatrix type="matrix" values="0 0 0 0 0.501961 0 0 0 0 0.501961 0 0 0 0 0.501961 0 0 0 0.302 0"/>
<feBlend mode="normal" in2="BackgroundImageFix" result="effect1_dropShadow_217_10190"/>
<feBlend mode="normal" in="SourceGraphic" in2="effect1_dropShadow_217_10190" result="shape"/>
</filter>
<linearGradient id="paint0_linear_217_10190" x1="219.696" y1="61.0039" x2="322.339" y2="309.168" gradientUnits="userSpaceOnUse">
<stop stop-color="white" stop-opacity="0.604"/>
<stop offset="1" stop-color="white" stop-opacity="0.2"/>
</linearGradient>
</defs>
</svg>
