<svg width="306" height="160" viewBox="0 0 306 160" fill="none" xmlns="http://www.w3.org/2000/svg">
<g filter="url(#filter0_f_196_9092)">
<mask id="mask0_196_9092" style="mask-type:alpha" maskUnits="userSpaceOnUse" x="2" y="0" width="302" height="156">
<rect x="2.5" width="301" height="156" fill="#C4C4C4"/>
</mask>
<g mask="url(#mask0_196_9092)">
<path d="M152.5 250.824C211.594 250.824 259.5 202.919 259.5 143.824C259.5 84.7298 211.594 36.8242 152.5 36.8242C93.4055 36.8242 45.5 84.7298 45.5 143.824C45.5 202.919 93.4055 250.824 152.5 250.824Z" fill="#FA9E42"/>
<g filter="url(#filter1_f_196_9092)">
<path d="M141.07 122.627C178.501 102.747 199.674 69.3657 188.363 48.0693C177.051 26.7728 137.538 25.6253 100.108 45.5063C62.6773 65.3872 41.5037 98.7681 52.8152 120.065C64.1267 141.361 103.64 142.508 141.07 122.627Z" fill="#F8E36F"/>
</g>
<path d="M184.5 143.434H124.5V156.434H184.5V143.434Z" fill="#FA9F42"/>
<path d="M9 151.934H126.563L154.427 133.324L183 151.934H297" stroke="#D0D0D0" stroke-width="10" stroke-linecap="round"/>
</g>
</g>
<defs>
<filter id="filter0_f_196_9092" x="0" y="27.3164" width="306" height="132.684" filterUnits="userSpaceOnUse" color-interpolation-filters="sRGB">
<feFlood flood-opacity="0" result="BackgroundImageFix"/>
<feBlend mode="normal" in="SourceGraphic" in2="BackgroundImageFix" result="shape"/>
<feGaussianBlur stdDeviation="2" result="effect1_foregroundBlur_196_9092"/>
</filter>
<filter id="filter1_f_196_9092" x="29.7695" y="11.3164" width="181.639" height="145.504" filterUnits="userSpaceOnUse" color-interpolation-filters="sRGB">
<feFlood flood-opacity="0" result="BackgroundImageFix"/>
<feBlend mode="normal" in="SourceGraphic" in2="BackgroundImageFix" result="shape"/>
<feGaussianBlur stdDeviation="10" result="effect1_foregroundBlur_196_9092"/>
</filter>
</defs>
</svg>
